<svg width="48" height="48" viewBox="0 0 48 48" fill="none" xmlns="http://www.w3.org/2000/svg">
<g clip-path="url(#clip0_105_341)">
<path fill-rule="evenodd" clip-rule="evenodd" d="M0.666687 24.0001C0.666687 11.1134 11.1134 0.666748 24 0.666748C36.8866 0.666748 47.3334 11.1134 47.3334 24.0001C47.3334 36.8866 36.8866 47.3334 24 47.3334C11.1134 47.3334 0.666687 36.8866 0.666687 24.0001ZM23.9998 10.0001C18.8451 10.0001 14.6665 14.1788 14.6665 19.3334C14.6665 24.488 18.8451 28.6667 23.9998 28.6667C29.1544 28.6667 33.3331 24.488 33.3331 19.3334C33.3331 14.1788 29.1544 10.0001 23.9998 10.0001ZM35.9269 33.3273C37.6951 34.466 37.6087 36.948 35.9985 38.3006C32.754 41.0255 28.5689 42.6667 24.0003 42.6667C19.4619 42.6667 15.3017 41.0472 12.0663 38.3543C10.4417 37.0021 10.3557 34.5075 12.1315 33.3614C12.6844 33.0046 13.2864 32.692 13.9398 32.4227C16.5687 31.3389 19.9265 31.0001 24 31.0001C28.0941 31.0001 31.4709 31.3172 34.1066 32.3893C34.7651 32.6572 35.3713 32.9696 35.9269 33.3273Z" fill="#FEFEFE"/>
</g>
<defs>
<clipPath id="clip0_105_341">
<rect width="48" height="48" fill="white"/>
</clipPath>
</defs>
</svg>
