<svg width="48" height="48" viewBox="0 0 48 48" fill="none" xmlns="http://www.w3.org/2000/svg">
<g clip-path="url(#clip0_701_523)">
<path fill-rule="evenodd" clip-rule="evenodd" d="M0.666504 24.0001C0.666504 11.1134 11.1132 0.666748 23.9998 0.666748C36.8864 0.666748 47.3332 11.1134 47.3332 24.0001C47.3332 36.8866 36.8864 47.3334 23.9998 47.3334C11.1132 47.3334 0.666504 36.8866 0.666504 24.0001ZM23.9996 10.0001C18.845 10.0001 14.6663 14.1788 14.6663 19.3334C14.6663 24.488 18.845 28.6667 23.9996 28.6667C29.1542 28.6667 33.3329 24.488 33.3329 19.3334C33.3329 14.1788 29.1542 10.0001 23.9996 10.0001ZM35.9267 33.3273C37.6949 34.466 37.6085 36.948 35.9983 38.3006C32.7538 41.0255 28.5687 42.6667 24.0001 42.6667C19.4617 42.6667 15.3015 41.0472 12.0661 38.3543C10.4416 37.0021 10.3555 34.5075 12.1314 33.3614C12.6842 33.0046 13.2862 32.692 13.9396 32.4227C16.5685 31.3389 19.9263 31.0001 23.9998 31.0001C28.0939 31.0001 31.4707 31.3172 34.1064 32.3893C34.7649 32.6572 35.3711 32.9696 35.9267 33.3273Z" fill="#9D9D9D"/>
</g>
<defs>
<clipPath id="clip0_701_523">
<rect width="48" height="48" fill="white"/>
</clipPath>
</defs>
</svg>
