<svg width="106" height="40" viewBox="0 0 106 40" fill="none" xmlns="http://www.w3.org/2000/svg">
<path d="M52.7961 26.7283H30.277V24.9995H52.7961V26.7283Z" fill="black"/>
<path d="M62.8124 24.2056C59.8016 24.2056 58.1043 23.9808 57.7233 23.5324C57.5529 23.3563 57.4684 23.1514 57.4684 22.918V8.09478C57.4684 7.80115 57.5686 7.56339 57.7706 7.37718C57.9725 7.19241 58.2318 7.09931 58.5498 7.09931H69.9998V9.09168H59.6312V14.4228H69.9998V16.4152H59.6312V22.0399C60.4147 22.1373 61.2955 22.186 62.271 22.186C63.1189 22.186 64.0843 22.1574 65.1657 22.0987C67.5405 21.9812 69.8623 21.4355 72.1311 20.4587L73.1166 22.2161C70.1688 23.5439 66.7341 24.2085 62.8109 24.2085L62.8124 24.2056ZM78.8086 27.7091H76.6458V16.4395H71.4608V14.238H76.6458V6.03223H78.8086V27.7091Z" fill="black"/>
<path d="M103.011 20.3685H86.4702C86.1723 20.3685 85.9245 20.2754 85.7225 20.0906C85.5205 19.9058 85.4203 19.6752 85.4203 19.4017V6.98193H87.5201V11.8447H101.961V6.98193H104.061V19.4017C104.061 19.6752 103.955 19.9044 103.743 20.0906C103.531 20.2768 103.287 20.3685 103.011 20.3685ZM101.961 18.5824V13.6322H87.5201V18.5824H101.961Z" fill="black"/>
<path d="M2.13887 20.0777C1.97844 19.9044 2.03431 19.734 2.38379 19.7726C2.73328 19.8113 3.1902 19.9144 3.41937 19.9875C6.40005 20.93 7.29239 24.1226 7.57026 25.0021C7.68914 25.3773 8.66456 27.7736 9.02121 29.6772C9.40651 31.7254 9.17447 33.301 9.26614 34.083L9.17017 34.0057C6.70513 31.9947 5.36591 28.7046 4.49791 25.4876C3.75597 22.7418 4.5681 22.7003 2.13743 20.0777H2.13887Z" fill="#AEC18B"/>
<path d="M10.5681 16.6645C10.5681 16.1875 10.1815 15.8008 9.70445 15.8008C9.22745 15.8008 8.84076 16.1875 8.84076 16.6645V33.1592C8.84076 33.6362 9.22745 34.0229 9.70445 34.0229C10.1815 34.0229 10.5681 33.6362 10.5681 33.1592V16.6645Z" fill="#688237"/>
<path d="M15.1803 29.9309C13.1678 32.3487 10.9277 34.0832 9.33778 34.0846C9.17306 34.0846 9.03986 33.9328 9.07423 33.7796C9.69013 30.9937 11.5249 27.7666 13.6076 25.2658C15.6057 22.8652 16.9019 22.2522 19.2223 21.3512C19.4228 21.2739 19.725 21.5403 19.5603 21.6735C19.016 22.1161 18.3772 22.9139 18.1108 23.5599C17.0767 26.065 16.8145 27.9686 15.1817 29.9323L15.1803 29.9309Z" fill="#2B3616"/>
<path d="M10.7687 2.67362C10.7687 2.67362 12.1151 0.987765 13.3254 2.95006C14.5371 4.91235 15.2332 9.37406 14.7534 10.6875C14.2736 12.001 13.4385 15.9843 12.0248 17.9709C10.6111 19.9561 10.2244 20.1022 9.8219 18.4464C9.41942 16.7907 7.682 7.72401 10.7687 2.67362Z" fill="#AEC18B"/>
<path d="M8.98685 18.4463C8.98685 18.4463 7.60465 11.8833 4.81161 9.2808C2.01713 6.67969 0.601989 6.33593 0.28258 6.87878C-0.0368301 7.42163 -0.197251 8.11918 0.420083 9.38106C1.03742 10.6415 5.04937 16.3393 7.62041 17.912L8.98828 18.4463H8.98685Z" fill="#90B54C"/>
<path d="M11.8157 9.43837C11.8157 8.27157 10.8698 7.32568 9.70302 7.32568C8.53621 7.32568 7.59033 8.27157 7.59033 9.43837V17.3635C7.59033 18.5303 8.53621 19.4761 9.70302 19.4761C10.8698 19.4761 11.8157 18.5303 11.8157 17.3635V9.43837Z" fill="white"/>
<path d="M10.296 19.2671C10.296 19.2671 10.2931 20.3414 10.8704 19.9461C10.8704 19.9461 11.84 18.3433 12.1466 17.8291C12.4531 17.3149 15.2089 13.3172 16.2588 12.4851C17.3072 11.6529 20.3896 8.83691 20.3839 8.8498C20.3782 8.8627 20.7277 8.54758 20.3237 8.60774C19.9198 8.6679 16.1155 8.79824 14.5815 11.3449C13.0475 13.8916 10.8116 17.7374 10.5882 18.3762C10.3647 19.0151 10.2989 19.2686 10.2989 19.2686L10.296 19.2671Z" fill="#90B54C"/>
<path d="M4.24296 12.3104C4.24296 12.3104 9.21887 11.4653 11.0107 12.9364C11.1697 13.0667 11.27 13.2543 11.2958 13.4592C11.4232 14.4732 11.8085 17.9839 11.2628 19.4305C11.2628 19.4305 10.7959 20.3974 10.0396 20.3945C10.0396 20.3945 9.05845 20.6681 8.50987 19.9161C7.96129 19.1641 3.60271 13.0867 3.89777 12.6284C4.07108 12.3591 4.24296 12.309 4.24296 12.309V12.3104Z" fill="#2B3616"/>
<path d="M39.9681 36.6469L40.2202 36.1513C40.6557 36.5781 41.4291 36.8904 42.2298 36.8904C43.3699 36.8904 43.8655 36.412 43.8655 35.8118C43.8655 34.1417 40.1157 35.1673 40.1157 32.9142C40.1157 32.0176 40.8118 31.2441 42.3601 31.2441C43.0476 31.2441 43.761 31.4447 44.2479 31.7841L44.0302 32.2969C43.5089 31.9574 42.8987 31.7927 42.3601 31.7927C41.2458 31.7927 40.7502 32.2883 40.7502 32.8971C40.7502 34.5671 44.5 33.5588 44.5 35.7775C44.5 36.6741 43.7867 37.439 42.2298 37.439C41.316 37.439 40.4208 37.1167 39.9681 36.6469Z" fill="#808080"/>
<path d="M47.8689 31.8531H45.729V31.2959H50.6533V31.8531H48.5134V37.3862H47.8689V31.8531Z" fill="#808080"/>
<path d="M52.3764 34.7851V31.2959H53.021V34.7593C53.021 36.2031 53.6999 36.8648 54.883 36.8648C56.0661 36.8648 56.7536 36.2031 56.7536 34.7593V31.2959H57.3795V34.7851C57.3795 36.5339 56.4399 37.4392 54.883 37.4392C53.326 37.4392 52.3778 36.5339 52.3778 34.7851H52.3764Z" fill="#808080"/>
<path d="M60.1898 31.2959H62.6692C64.6186 31.2959 65.932 32.5492 65.932 34.341C65.932 36.1329 64.6186 37.3862 62.6692 37.3862H60.1898V31.2959ZM62.6348 36.829C64.2533 36.829 65.2975 35.802 65.2975 34.341C65.2975 32.8801 64.2533 31.8531 62.6348 31.8531H60.8343V36.8304H62.6348V36.829Z" fill="#808080"/>
<path d="M70.0728 35.2821V37.3876H69.4383V35.2821L67.0019 31.2974H67.6894L69.7778 34.7163L71.8661 31.2974H72.5107L70.0743 35.2821H70.0728Z" fill="#808080"/>
<path d="M82.6201 31.2959V37.3862H81.9855V34.5759H78.1741V37.3862H77.5296V31.2959H78.1741V34.0102H81.9855V31.2959H82.6201Z" fill="#808080"/>
<path d="M85.4217 34.7851V31.2959H86.0662V34.7593C86.0662 36.2031 86.7452 36.8648 87.9283 36.8648C89.1114 36.8648 89.7989 36.2031 89.7989 34.7593V31.2959H90.4248V34.7851C90.4248 36.5339 89.4852 37.4392 87.9283 37.4392C86.3713 37.4392 85.4231 36.5339 85.4231 34.7851H85.4217Z" fill="#808080"/>
<path d="M98.3242 35.7605C98.3242 36.7961 97.5578 37.3876 96.0353 37.3876H93.2336V31.2974H95.8605C97.2184 31.2974 98.0004 31.8717 98.0004 32.8629C98.0004 33.559 97.6266 34.0202 97.0694 34.2465C97.8529 34.4198 98.3227 34.9341 98.3227 35.7605H98.3242ZM93.8782 31.8273V34.0374H95.819C96.793 34.0374 97.3588 33.6636 97.3588 32.9331C97.3588 32.2026 96.793 31.8288 95.819 31.8288H93.8782V31.8273ZM97.681 35.7075C97.681 34.9154 97.0981 34.5674 96.0281 34.5674H93.8796V36.8562H96.0281C97.0981 36.8562 97.681 36.5082 97.681 35.7075Z" fill="#808080"/>
<path d="M106 25.5005H83.4809V27.2293H106V25.5005Z" fill="black"/>
<path d="M52.4151 20.3685C49.3184 19.7641 46.9436 18.9133 45.2907 17.8204C43.5089 16.6301 42.237 15.3897 41.4735 14.1006L41.3145 14.3642C39.7447 17.2747 36.194 19.2756 30.6594 20.3685L30.277 18.4936C32.2493 18.1226 33.8922 17.6055 35.2071 16.9409C37.5389 15.7693 39.0987 14.3541 39.8822 12.6941C40.2646 11.8146 40.4551 11.044 40.4551 10.3794V6.65967H42.5865V10.3794C42.5865 11.415 42.9889 12.558 43.7953 13.807C45.3222 16.0729 48.3229 17.6342 52.7975 18.4936L52.4151 20.3685Z" fill="black"/>
</svg>
