<svg width="21" height="32" viewBox="0 0 21 32" fill="none" xmlns="http://www.w3.org/2000/svg">
<path d="M2.09925 17.7427C1.94181 17.5726 1.99663 17.4053 2.33964 17.4433C2.68265 17.4813 3.1311 17.5825 3.35602 17.6542C6.28145 18.5792 7.15725 21.7127 7.42997 22.5758C7.54665 22.9441 8.50398 25.296 8.85402 27.1643C9.23218 29.1745 9.00444 30.7209 9.09441 31.4884L9.00022 31.4125C6.58088 29.4388 5.26647 26.2097 4.41457 23.0524C3.68638 20.3575 4.48346 20.3167 2.09785 17.7427H2.09925Z" fill="#AEC18B"/>
<path d="M10.3722 14.3927C10.3722 13.9246 9.99273 13.545 9.52456 13.545C9.0564 13.545 8.67688 13.9246 8.67688 14.3927V30.5817C8.67688 31.0499 9.0564 31.4294 9.52456 31.4294C9.99273 31.4294 10.3722 31.0499 10.3722 30.5817V14.3927Z" fill="#688237"/>
<path d="M14.8989 27.4131C12.9238 29.786 10.7251 31.4884 9.1647 31.4898C9.00304 31.4898 8.8723 31.3408 8.90604 31.1904C9.51053 28.4562 11.3113 25.2889 13.3553 22.8344C15.3164 20.4784 16.5886 19.8767 18.866 18.9925C19.0628 18.9165 19.3594 19.178 19.1978 19.3088C18.6636 19.7431 18.0366 20.5262 17.7751 21.1602C16.7601 23.6189 16.5029 25.4872 14.9003 27.4145L14.8989 27.4131Z" fill="#2B3616"/>
<path d="M10.5691 0.661131C10.5691 0.661131 11.8905 -0.993472 13.0784 0.932446C14.2677 2.85836 14.9509 7.23737 14.4799 8.52647C14.009 9.81557 13.1894 13.725 11.8019 15.6749C10.4144 17.6233 10.0349 17.7667 9.63984 16.1416C9.24482 14.5165 7.53961 5.61791 10.5691 0.661131Z" fill="#AEC18B"/>
<path d="M8.82026 16.1416C8.82026 16.1416 7.46369 9.70032 4.72242 7.14602C1.97974 4.59312 0.59083 4.25574 0.277341 4.78853C-0.0361474 5.32132 -0.193595 6.00593 0.412296 7.24442C1.01819 8.48151 4.95578 14.0737 7.47915 15.6172L8.82167 16.1416H8.82026Z" fill="#90B54C"/>
<path d="M11.5967 7.30058C11.5967 6.1554 10.6683 5.22705 9.52317 5.22705C8.37799 5.22705 7.44965 6.1554 7.44965 7.30058V15.0788C7.44965 16.2239 8.37799 17.1523 9.52317 17.1523C10.6683 17.1523 11.5967 16.2239 11.5967 15.0788V7.30058Z" fill="white"/>
<path d="M10.1052 16.9471C10.1052 16.9471 10.1024 18.0014 10.6689 17.6134C10.6689 17.6134 11.6206 16.0404 11.9214 15.5357C12.2223 15.031 14.927 11.1075 15.9574 10.2907C16.9865 9.47397 20.0117 6.71021 20.0061 6.72286C20.0004 6.73551 20.3435 6.42624 19.947 6.48528C19.5506 6.54433 15.8168 6.67225 14.3113 9.17173C12.8057 11.6712 10.6112 15.4457 10.3919 16.0727C10.1726 16.6997 10.108 16.9485 10.108 16.9485L10.1052 16.9471Z" fill="#90B54C"/>
<path d="M4.1643 10.1192C4.1643 10.1192 9.04798 9.28977 10.8066 10.7335C10.9627 10.8614 11.0611 11.0456 11.0864 11.2466C11.2115 12.2419 11.5896 15.6875 11.054 17.1073C11.054 17.1073 10.5957 18.0562 9.85349 18.0534C9.85349 18.0534 8.89053 18.3219 8.35212 17.5839C7.81371 16.8458 3.53592 10.8811 3.82551 10.4313C3.99561 10.167 4.1643 10.1178 4.1643 10.1178V10.1192Z" fill="#2B3616"/>
</svg>
