<svg width="106" height="40" viewBox="0 0 106 40" fill="none" xmlns="http://www.w3.org/2000/svg">
<path d="M52.7961 26.7281H30.277V24.9993H52.7961V26.7281Z" fill="white"/>
<path d="M62.8124 24.2059C59.8016 24.2059 58.1043 23.981 57.7233 23.5327C57.5529 23.3565 57.4684 23.1517 57.4684 22.9182V8.09503C57.4684 7.8014 57.5686 7.56363 57.7706 7.37743C57.9725 7.19266 58.2318 7.09956 58.5498 7.09956H69.9998V9.09193H59.6312V14.4231H69.9998V16.4154H59.6312V22.0402C60.4147 22.1376 61.2955 22.1863 62.271 22.1863C63.1189 22.1863 64.0843 22.1576 65.1657 22.0989C67.5405 21.9815 69.8623 21.4357 72.1311 20.4589L73.1166 22.2164C70.1688 23.5441 66.7341 24.2087 62.8109 24.2087L62.8124 24.2059ZM78.8086 27.7094H76.6458V16.4398H71.4608V14.2383H76.6458V6.03247H78.8086V27.7094Z" fill="white"/>
<path d="M103.011 20.3687H86.4702C86.1723 20.3687 85.9245 20.2756 85.7225 20.0909C85.5205 19.9061 85.4203 19.6755 85.4203 19.4019V6.98218H87.5201V11.8449H101.961V6.98218H104.061V19.4019C104.061 19.6755 103.955 19.9047 103.743 20.0909C103.531 20.2771 103.287 20.3687 103.011 20.3687ZM101.961 18.5826V13.6325H87.5201V18.5826H101.961Z" fill="white"/>
<path d="M2.13888 20.078C1.97846 19.9046 2.03432 19.7342 2.38381 19.7729C2.7333 19.8115 3.19021 19.9147 3.41938 19.9877C6.40006 20.9302 7.2924 24.1229 7.57028 25.0023C7.68916 25.3776 8.66458 27.7739 9.02123 29.6774C9.40652 31.7257 9.17449 33.3012 9.26616 34.0833L9.17019 34.0059C6.70515 31.9949 5.36592 28.7049 4.49793 25.4879C3.75598 22.7421 4.56811 22.7006 2.13745 20.078H2.13888Z" fill="#AEC18B"/>
<path d="M10.5681 16.6647C10.5681 16.1877 10.1815 15.801 9.70445 15.801C9.22744 15.801 8.84075 16.1877 8.84075 16.6647V33.1594C8.84075 33.6364 9.22744 34.0231 9.70445 34.0231C10.1815 34.0231 10.5681 33.6364 10.5681 33.1594V16.6647Z" fill="#688237"/>
<path d="M15.1802 29.9309C13.1678 32.3487 10.9277 34.0832 9.33777 34.0846C9.17305 34.0846 9.03984 33.9328 9.07422 33.7796C9.69012 30.9937 11.5249 27.7666 13.6075 25.2658C15.6056 22.8652 16.9019 22.2522 19.2223 21.3512C19.4228 21.2739 19.725 21.5403 19.5603 21.6735C19.016 22.1161 18.3772 22.9139 18.1108 23.5599C17.0766 26.065 16.8145 27.9686 15.1817 29.9323L15.1802 29.9309Z" fill="#2B3616"/>
<path d="M10.7687 2.67362C10.7687 2.67362 12.1151 0.987765 13.3254 2.95006C14.5371 4.91235 15.2332 9.37406 14.7534 10.6875C14.2736 12.0009 13.4385 15.9843 12.0248 17.9709C10.6111 19.9561 10.2244 20.1022 9.8219 18.4464C9.41941 16.7907 7.682 7.72401 10.7687 2.67362Z" fill="#AEC18B"/>
<path d="M8.98685 18.4465C8.98685 18.4465 7.60465 11.8836 4.81161 9.28104C2.01713 6.67993 0.601989 6.33617 0.28258 6.87902C-0.0368301 7.42188 -0.197251 8.11942 0.420083 9.3813C1.03742 10.6418 5.04937 16.3396 7.62041 17.9123L8.98828 18.4465H8.98685Z" fill="#90B54C"/>
<path d="M11.8157 9.43861C11.8157 8.27181 10.8698 7.32593 9.70301 7.32593C8.53621 7.32593 7.59033 8.27181 7.59033 9.43861V17.3637C7.59033 18.5305 8.53621 19.4764 9.70301 19.4764C10.8698 19.4764 11.8157 18.5305 11.8157 17.3637V9.43861Z" fill="white"/>
<path d="M10.296 19.2671C10.296 19.2671 10.2931 20.3414 10.8704 19.9461C10.8704 19.9461 11.8401 18.3433 12.1466 17.8291C12.4531 17.3149 15.2089 13.3172 16.2588 12.4851C17.3073 11.6529 20.3896 8.83691 20.3839 8.8498C20.3782 8.8627 20.7277 8.54758 20.3237 8.60774C19.9198 8.6679 16.1156 8.79824 14.5815 11.3449C13.0475 13.8916 10.8116 17.7374 10.5882 18.3762C10.3647 19.0151 10.2989 19.2686 10.2989 19.2686L10.296 19.2671Z" fill="#90B54C"/>
<path d="M4.24297 12.3104C4.24297 12.3104 9.21889 11.4653 11.0107 12.9364C11.1697 13.0667 11.27 13.2543 11.2958 13.4592C11.4232 14.4732 11.8085 17.9839 11.2628 19.4305C11.2628 19.4305 10.7959 20.3974 10.0396 20.3945C10.0396 20.3945 9.05847 20.6681 8.50989 19.9161C7.9613 19.1641 3.60272 13.0867 3.89778 12.6284C4.07109 12.3591 4.24297 12.309 4.24297 12.309V12.3104Z" fill="#2B3616"/>
<path d="M39.9682 36.6471L40.2202 36.1515C40.6557 36.5784 41.4291 36.8906 42.2298 36.8906C43.3699 36.8906 43.8655 36.4122 43.8655 35.8121C43.8655 34.142 40.1157 35.1675 40.1157 32.9145C40.1157 32.0178 40.8118 31.2444 42.3601 31.2444C43.0477 31.2444 43.761 31.4449 44.248 31.7844L44.0302 32.2971C43.5089 31.9577 42.8987 31.793 42.3601 31.793C41.2458 31.793 40.7502 32.2886 40.7502 32.8973C40.7502 34.5674 44.5 33.559 44.5 35.7777C44.5 36.6743 43.7867 37.4392 42.2298 37.4392C41.316 37.4392 40.4208 37.1169 39.9682 36.6471Z" fill="#BFBFBF"/>
<path d="M47.8689 31.8531H45.729V31.2959H50.6533V31.8531H48.5134V37.3862H47.8689V31.8531Z" fill="#BFBFBF"/>
<path d="M52.3764 34.7851V31.2959H53.021V34.7593C53.021 36.2031 53.6999 36.8648 54.883 36.8648C56.0661 36.8648 56.7536 36.2031 56.7536 34.7593V31.2959H57.3796V34.7851C57.3796 36.5339 56.44 37.4392 54.883 37.4392C53.3261 37.4392 52.3779 36.5339 52.3779 34.7851H52.3764Z" fill="#BFBFBF"/>
<path d="M60.1898 31.2959H62.6692C64.6186 31.2959 65.932 32.5492 65.932 34.341C65.932 36.1329 64.6186 37.3862 62.6692 37.3862H60.1898V31.2959ZM62.6348 36.829C64.2533 36.829 65.2975 35.802 65.2975 34.341C65.2975 32.8801 64.2533 31.8531 62.6348 31.8531H60.8343V36.8304H62.6348V36.829Z" fill="#BFBFBF"/>
<path d="M70.0729 35.2821V37.3876H69.4383V35.2821L67.002 31.2974H67.6895L69.7778 34.7163L71.8661 31.2974H72.5107L70.0743 35.2821H70.0729Z" fill="#BFBFBF"/>
<path d="M82.6201 31.2959V37.3862H81.9856V34.5759H78.1741V37.3862H77.5296V31.2959H78.1741V34.0102H81.9856V31.2959H82.6201Z" fill="#BFBFBF"/>
<path d="M85.4217 34.7851V31.2959H86.0663V34.7593C86.0663 36.2031 86.7452 36.8648 87.9283 36.8648C89.1114 36.8648 89.7989 36.2031 89.7989 34.7593V31.2959H90.4249V34.7851C90.4249 36.5339 89.4852 37.4392 87.9283 37.4392C86.3714 37.4392 85.4232 36.5339 85.4232 34.7851H85.4217Z" fill="#BFBFBF"/>
<path d="M98.3242 35.7605C98.3242 36.7961 97.5578 37.3876 96.0353 37.3876H93.2336V31.2974H95.8605C97.2184 31.2974 98.0004 31.8717 98.0004 32.8629C98.0004 33.559 97.6266 34.0202 97.0694 34.2465C97.8529 34.4198 98.3227 34.9341 98.3227 35.7605H98.3242ZM93.8782 31.8273V34.0374H95.819C96.793 34.0374 97.3588 33.6636 97.3588 32.9331C97.3588 32.2026 96.793 31.8288 95.819 31.8288H93.8782V31.8273ZM97.681 35.7075C97.681 34.9154 97.0981 34.5674 96.0281 34.5674H93.8796V36.8562H96.0281C97.0981 36.8562 97.681 36.5082 97.681 35.7075Z" fill="#BFBFBF"/>
<path d="M106 25.5007H83.4809V27.2296H106V25.5007Z" fill="white"/>
<path d="M52.4151 20.3687C49.3184 19.7643 46.9436 18.9135 45.2907 17.8206C43.5089 16.6304 42.237 15.39 41.4735 14.1009L41.3145 14.3644C39.7447 17.2749 36.194 19.2759 30.6594 20.3687L30.277 18.4938C32.2493 18.1228 33.8922 17.6058 35.2071 16.9412C37.5389 15.7695 39.0987 14.3544 39.8822 12.6943C40.2646 11.8149 40.4551 11.0443 40.4551 10.3797V6.65991H42.5865V10.3797C42.5865 11.4152 42.9889 12.5582 43.7953 13.8072C45.3222 16.0732 48.3229 17.6344 52.7975 18.4938L52.4151 20.3687Z" fill="white"/>
</svg>
