<svg width="24" height="24" viewBox="0 0 24 24" fill="none" xmlns="http://www.w3.org/2000/svg">
<path fill-rule="evenodd" clip-rule="evenodd" d="M16.7197 18.5796C15.1828 19.7307 13.2741 20.4124 11.2062 20.4124C6.12177 20.4124 2 16.2907 2 11.2062C2 6.12177 6.12177 2 11.2062 2C16.2907 2 20.4124 6.12177 20.4124 11.2062C20.4124 13.2741 19.7307 15.1828 18.5796 16.7197L22 20.1401L20.1401 22L16.7197 18.5796ZM11.1667 18.6667C15.3088 18.6667 18.6667 15.3088 18.6667 11.1667C18.6667 7.02453 15.3088 3.66667 11.1667 3.66667C7.02453 3.66667 3.66667 7.02453 3.66667 11.1667C3.66667 15.3088 7.02453 18.6667 11.1667 18.6667Z" fill="#E8E8E8"/>
</svg>
