<svg width="32" height="32" viewBox="0 0 32 32" fill="none" xmlns="http://www.w3.org/2000/svg">
<path d="M27.908 7.41817C27.9006 7.37141 27.8932 7.32469 27.8858 7.27434C27.8858 7.27074 27.8858 7.26354 27.8858 7.25994C27.8784 7.21678 27.871 7.17363 27.8637 7.13047C27.8637 7.11968 27.8637 7.10886 27.86 7.10167C27.8526 7.06211 27.8452 7.02616 27.8378 6.9866C27.8378 6.97221 27.8304 6.95423 27.8267 6.93984C27.8193 6.90747 27.8119 6.87509 27.8045 6.84273C27.8008 6.82115 27.7934 6.79959 27.7898 6.77801C27.7898 6.76362 27.7824 6.74924 27.7824 6.73845C27.775 6.71328 27.7713 6.68807 27.7639 6.6629C24.6204 5.33576 21.2848 6.10904 18.9355 8.02601C16.6748 9.87465 16.4162 11.8923 16.0579 15.7982C16.0505 15.7982 16.0432 15.7982 16.0321 15.8054C15.0606 12.029 14.4732 10.0833 11.9503 8.60866C9.32025 7.07292 5.90342 6.81756 3.01109 8.60866C3.01109 8.63383 3.01109 8.659 3.0074 8.68777C3.0074 8.70216 3.0074 8.71654 3.0074 8.73093C3.0074 8.75251 3.00739 8.77411 3.0037 8.79569C3.0037 8.82805 3.00369 8.86043 3 8.8928C3 8.90719 3 8.92517 3 8.93956C3 8.97912 3 9.01866 3 9.05463C3 9.06542 3 9.0726 3 9.08339C3 9.12654 3 9.1697 3 9.21646C3 9.22005 3 9.22726 3 9.23086C3 9.27761 3 9.32797 3 9.37473C3.05171 12.3671 4.8137 14.8775 7.24059 16.2945C9.78199 17.7799 11.8506 17.3303 15.7883 16.3773C15.7883 16.3844 15.7883 16.3917 15.7883 16.3989C15.9545 20.5025 16.7339 25.009 17.8384 25.8974C17.9862 26.0161 18.9466 26.0808 19.1793 25.8111C19.3603 25.6025 19.593 25.0306 19.3566 24.8005C18.4183 23.8833 16.8152 19.625 16.793 16.3197C20.594 16.6362 22.6442 16.701 24.8457 14.9027C27.014 13.1332 28.3512 10.3853 27.919 7.42177L27.908 7.41817Z" fill="white"/>
</svg>
