<svg width="32" height="50" viewBox="0 0 32 50" fill="none" xmlns="http://www.w3.org/2000/svg">
<g clip-path="url(#clip0_1102_3808)">
<path d="M3.33524 28.1731C3.08503 27.903 3.17215 27.6373 3.71725 27.6976C4.26235 27.7579 4.975 27.9186 5.33245 28.0324C9.98143 29.5012 11.3732 34.4769 11.8066 35.8475C11.992 36.4324 13.5134 40.1669 14.0697 43.1336C14.6706 46.3257 14.3087 48.7811 14.4517 49.9999L14.302 49.8794C10.4573 46.7453 8.36847 41.6179 7.01466 36.6042C5.85744 32.325 7.12412 32.2603 3.333 28.1731H3.33524Z" fill="#AEC18B"/>
<path d="M16.4823 22.8536C16.4823 22.1102 15.8792 21.5076 15.1352 21.5076C14.3912 21.5076 13.7881 22.1102 13.7881 22.8536V48.5601C13.7881 49.3035 14.3912 49.9062 15.1352 49.9062C15.8792 49.9062 16.4823 49.3035 16.4823 48.5601V22.8536Z" fill="#688237"/>
<path d="M23.6761 43.5287C20.5373 47.2967 17.0433 49.9999 14.5636 50.0022C14.3067 50.0022 14.0989 49.7656 14.1525 49.5267C15.1132 45.185 17.9749 40.1557 21.2232 36.2583C24.3396 32.517 26.3614 31.5616 29.9805 30.1575C30.2933 30.037 30.7647 30.4522 30.5077 30.6598C29.6588 31.3496 28.6624 32.5929 28.2469 33.5997C26.634 37.5038 26.2251 40.4705 23.6784 43.5309L23.6761 43.5287Z" fill="#2B3616"/>
<path d="M16.7955 1.04908C16.7955 1.04908 18.8955 -1.57827 20.7832 1.4799C22.6732 4.53807 23.7589 11.4915 23.0105 13.5385C22.2621 15.5854 20.9597 21.7933 18.7547 24.8894C16.5497 27.9833 15.9466 28.211 15.3188 25.6305C14.691 23.0501 11.9812 8.91997 16.7955 1.04908Z" fill="#AEC18B"/>
<path d="M14.0163 25.6306C14.0163 25.6306 11.8605 15.4024 7.5042 11.3465C3.14564 7.2927 0.938437 6.75696 0.440252 7.60298C-0.0579324 8.449 -0.308142 9.5361 0.654718 11.5027C1.61758 13.4671 7.87505 22.3469 11.8851 24.7979L14.0186 25.6306H14.0163Z" fill="#90B54C"/>
<path d="M18.4282 11.5921C18.4282 9.77369 16.9529 8.29956 15.1331 8.29956C13.3132 8.29956 11.8379 9.77369 11.8379 11.5921V23.9431C11.8379 25.7615 13.3132 27.2357 15.1331 27.2357C16.9529 27.2357 18.4282 25.7615 18.4282 23.9431V11.5921Z" fill="white"/>
<path d="M16.0581 26.9097C16.0581 26.9097 16.0536 28.5838 16.9539 27.9677C16.9539 27.9677 18.4664 25.4699 18.9445 24.6685C19.4225 23.8671 23.7208 17.6369 25.3583 16.34C26.9936 15.0431 31.8012 10.6545 31.7923 10.6746C31.7833 10.6947 32.3284 10.2036 31.6984 10.2973C31.0684 10.3911 25.1349 10.5942 22.7423 14.5631C20.3496 18.5321 16.8624 24.5256 16.5138 25.5212C16.1653 26.5168 16.0626 26.9119 16.0626 26.9119L16.0581 26.9097Z" fill="#90B54C"/>
<path d="M6.61736 16.0677C6.61736 16.0677 14.3783 14.7506 17.1731 17.0431C17.421 17.2463 17.5774 17.5387 17.6176 17.8579C17.8165 19.4383 18.4174 24.9096 17.5663 27.1641C17.5663 27.1641 16.838 28.6709 15.6584 28.6664C15.6584 28.6664 14.1281 29.0928 13.2725 27.9209C12.4169 26.7489 5.61876 17.2775 6.07896 16.5632C6.34928 16.1435 6.61736 16.0654 6.61736 16.0654V16.0677Z" fill="#2B3616"/>
</g>
<defs>
<clipPath id="clip0_1102_3808">
<rect width="32" height="50" fill="white"/>
</clipPath>
</defs>
</svg>
