<svg width="309" height="128" viewBox="0 0 309 128" fill="none" xmlns="http://www.w3.org/2000/svg">
<path d="M0.0556641 96.9199V83.2399H99.1757V96.9199H0.0556641ZM58.0157 17.7199C58.0157 20.9999 58.9757 24.4799 60.8957 28.1599C62.8157 31.8399 65.4157 35.4799 68.6957 39.0799C72.0557 42.5999 75.9757 45.9599 80.4557 49.1599C85.0157 52.2799 89.9357 54.9599 95.2157 57.1999L86.8157 69.1999C78.8957 65.5999 71.6557 61.1599 65.0957 55.8799C58.6157 50.5999 53.4557 44.9199 49.6157 38.8399C45.7757 44.9199 40.5757 50.5999 34.0157 55.8799C27.5357 61.1599 20.3357 65.5999 12.4157 69.1999L4.01566 57.1999C9.29566 54.9599 14.1757 52.2799 18.6557 49.1599C23.2157 45.9599 27.1357 42.5999 30.4157 39.0799C33.7757 35.4799 36.4157 31.8399 38.3357 28.1599C40.2557 24.4799 41.2157 20.9999 41.2157 17.7199V3.43993H58.0157V17.7199Z" fill="black"/>
<path d="M128.218 39.9199H160.378V53.3599H128.218V75.0799H135.058C141.538 75.0799 147.858 74.9599 154.018 74.7199C160.258 74.4799 166.658 73.8399 173.218 72.7999V85.9999C167.138 87.1199 160.738 87.8799 154.018 88.2799C147.378 88.5999 141.058 88.7599 135.058 88.7599H112.138V5.83992H163.378V19.5199H128.218V39.9199ZM165.058 36.6799H181.018V0.919922H197.098V108.44H181.018V50.3599H165.058V36.6799Z" fill="black"/>
<path d="M209.821 96.9199V83.2399H308.941V96.9199H209.821ZM281.221 4.51993H297.301V66.6799H221.461V4.51993H237.541V21.7999H281.221V4.51993ZM281.221 52.9999V35.4799H237.541V52.9999H281.221Z" fill="black"/>
<path d="M11.8957 123.534C11.8957 124.098 11.7757 124.602 11.5357 125.046C11.3077 125.478 10.9837 125.844 10.5637 126.144C10.1437 126.456 9.64574 126.69 9.06974 126.846C8.49374 127.014 7.86374 127.098 7.17974 127.098C6.54374 127.098 5.91974 127.02 5.30774 126.864C4.69574 126.708 4.14374 126.462 3.65174 126.126C3.17174 125.79 2.78174 125.364 2.48174 124.848C2.18174 124.32 2.03174 123.684 2.03174 122.94H3.41774C3.41774 123.504 3.52574 123.978 3.74174 124.362C3.96974 124.746 4.26374 125.058 4.62374 125.298C4.98374 125.526 5.38574 125.688 5.82974 125.784C6.27374 125.88 6.72374 125.928 7.17974 125.928C8.19974 125.928 9.00974 125.718 9.60974 125.298C10.2217 124.866 10.5277 124.284 10.5277 123.552C10.5277 123.192 10.4677 122.874 10.3477 122.598C10.2277 122.322 10.0297 122.076 9.75374 121.86C9.47774 121.632 9.11174 121.422 8.65574 121.23C8.19974 121.026 7.62974 120.828 6.94574 120.636C6.27374 120.444 5.66174 120.24 5.10974 120.024C4.55774 119.808 4.08374 119.556 3.68774 119.268C3.30374 118.968 3.00374 118.62 2.78774 118.224C2.57174 117.816 2.46374 117.33 2.46374 116.766C2.46374 116.238 2.57774 115.758 2.80574 115.326C3.03374 114.882 3.35174 114.504 3.75974 114.192C4.16774 113.88 4.65374 113.64 5.21774 113.472C5.79374 113.292 6.42374 113.202 7.10774 113.202C7.83974 113.202 8.49374 113.31 9.06974 113.526C9.65774 113.73 10.1557 114.018 10.5637 114.39C10.9717 114.762 11.2777 115.2 11.4817 115.704C11.6977 116.196 11.8057 116.736 11.8057 117.324H10.4377C10.4377 116.436 10.1437 115.728 9.55574 115.2C8.97974 114.66 8.16374 114.39 7.10774 114.39C6.56774 114.39 6.09374 114.45 5.68574 114.57C5.27774 114.69 4.93574 114.858 4.65974 115.074C4.38374 115.278 4.17374 115.524 4.02974 115.812C3.89774 116.088 3.83174 116.394 3.83174 116.73C3.83174 117.078 3.89774 117.384 4.02974 117.648C4.17374 117.912 4.38974 118.152 4.67774 118.368C4.96574 118.584 5.32574 118.782 5.75774 118.962C6.20174 119.142 6.72974 119.316 7.34174 119.484C8.07374 119.688 8.72174 119.916 9.28574 120.168C9.84974 120.42 10.3237 120.708 10.7077 121.032C11.1037 121.344 11.3977 121.71 11.5897 122.13C11.7937 122.538 11.8957 123.006 11.8957 123.534Z" fill="black"/>
<path d="M49.2068 114.57H44.6168V126.918H43.2488V114.57H38.6588V113.382H49.2068V114.57Z" fill="black"/>
<path d="M86.3001 122.49C86.3001 123.282 86.1741 123.972 85.9221 124.56C85.6701 125.136 85.3221 125.616 84.8781 126C84.4461 126.372 83.9361 126.648 83.3481 126.828C82.7601 127.008 82.1361 127.098 81.4761 127.098C80.8161 127.098 80.1921 127.008 79.6041 126.828C79.0161 126.648 78.5001 126.372 78.0561 126C77.6241 125.616 77.2821 125.136 77.0301 124.56C76.7781 123.972 76.6521 123.282 76.6521 122.49V113.382H78.0201V122.49C78.0201 123.078 78.1101 123.588 78.2901 124.02C78.4701 124.44 78.7161 124.794 79.0281 125.082C79.3401 125.358 79.7061 125.568 80.1261 125.712C80.5461 125.844 80.9961 125.91 81.4761 125.91C81.9561 125.91 82.4061 125.844 82.8261 125.712C83.2461 125.568 83.6121 125.358 83.9241 125.082C84.2361 124.794 84.4821 124.44 84.6621 124.02C84.8421 123.588 84.9321 123.078 84.9321 122.49V113.382H86.3001V122.49Z" fill="black"/>
<path d="M124.195 120.15C124.195 121.182 124.051 122.112 123.763 122.94C123.487 123.768 123.091 124.482 122.575 125.082C122.059 125.67 121.435 126.12 120.703 126.432C119.971 126.756 119.149 126.918 118.237 126.918H114.925V113.382H118.237C119.149 113.382 119.971 113.544 120.703 113.868C121.435 114.18 122.059 114.636 122.575 115.236C123.091 115.824 123.487 116.538 123.763 117.378C124.051 118.206 124.195 119.13 124.195 120.15ZM122.827 120.15C122.827 119.298 122.719 118.53 122.503 117.846C122.299 117.15 121.999 116.562 121.603 116.082C121.219 115.59 120.739 115.218 120.163 114.966C119.599 114.702 118.957 114.57 118.237 114.57H116.293V125.73H118.237C118.957 125.73 119.599 125.604 120.163 125.352C120.739 125.088 121.219 124.716 121.603 124.236C121.999 123.744 122.299 123.156 122.503 122.472C122.719 121.776 122.827 121.002 122.827 120.15Z" fill="black"/>
<path d="M162.002 113.382L157.106 121.878V126.918H155.756V121.878L150.842 113.382H152.354L156.404 120.492H156.476L160.526 113.382H162.002Z" fill="black"/>
<path d="M229.743 126.918H228.375V120.528H220.887V126.918H219.519V113.382H220.887V119.34H228.375V113.382H229.743V126.918Z" fill="black"/>
<path d="M268.012 122.49C268.012 123.282 267.886 123.972 267.634 124.56C267.382 125.136 267.034 125.616 266.59 126C266.158 126.372 265.648 126.648 265.06 126.828C264.472 127.008 263.848 127.098 263.188 127.098C262.528 127.098 261.904 127.008 261.316 126.828C260.728 126.648 260.212 126.372 259.768 126C259.336 125.616 258.994 125.136 258.742 124.56C258.49 123.972 258.364 123.282 258.364 122.49V113.382H259.732V122.49C259.732 123.078 259.822 123.588 260.002 124.02C260.182 124.44 260.428 124.794 260.74 125.082C261.052 125.358 261.418 125.568 261.838 125.712C262.258 125.844 262.708 125.91 263.188 125.91C263.668 125.91 264.118 125.844 264.538 125.712C264.958 125.568 265.324 125.358 265.636 125.082C265.948 124.794 266.194 124.44 266.374 124.02C266.554 123.588 266.644 123.078 266.644 122.49V113.382H268.012V122.49Z" fill="black"/>
<path d="M305.907 123.084C305.907 123.708 305.793 124.26 305.565 124.74C305.349 125.22 305.037 125.622 304.629 125.946C304.233 126.27 303.753 126.51 303.189 126.666C302.625 126.834 302.001 126.918 301.317 126.918H296.637V113.382H300.723C302.127 113.382 303.225 113.664 304.017 114.228C304.821 114.792 305.223 115.704 305.223 116.964C305.223 117.612 305.049 118.194 304.701 118.71C304.365 119.214 303.903 119.598 303.315 119.862C304.131 120.102 304.767 120.516 305.223 121.104C305.679 121.68 305.907 122.34 305.907 123.084ZM303.855 116.946C303.855 116.118 303.597 115.518 303.081 115.146C302.565 114.762 301.779 114.57 300.723 114.57H298.005V119.358H300.849C301.809 119.358 302.547 119.154 303.063 118.746C303.591 118.338 303.855 117.738 303.855 116.946ZM304.539 123.102C304.539 122.358 304.281 121.746 303.765 121.266C303.249 120.786 302.457 120.546 301.389 120.546H298.005V125.73H301.317C302.325 125.73 303.111 125.502 303.675 125.046C304.251 124.59 304.539 123.942 304.539 123.102Z" fill="black"/>
</svg>
