<svg width="215" height="54" viewBox="0 0 215 54" fill="none" xmlns="http://www.w3.org/2000/svg">
<rect width="215" height="54" rx="6" fill="#FEE500"/>
<g clip-path="url(#clip0_174_907)">
<mask id="mask0_174_907" style="mask-type:luminance" maskUnits="userSpaceOnUse" x="-76" y="-71" width="204" height="143">
<path d="M-75.2766 -70.2316H127.552V71.8909H-75.2766V-70.2316Z" fill="white"/>
</mask>
<g mask="url(#mask0_174_907)">
<path d="M23.9998 16.2387C17.5063 16.2387 12.2409 20.3586 12.2409 25.4437C12.2409 28.71 14.4217 31.5779 17.6968 33.2148L16.5888 37.3134C16.5464 37.4392 16.5816 37.5724 16.6736 37.6631C16.737 37.7264 16.8216 37.7612 16.9133 37.7612C16.9842 37.7612 17.0545 37.7333 17.1181 37.6844L21.8823 34.4947C22.5743 34.5926 23.2801 34.6484 23.9998 34.6484C30.4933 34.6484 35.7591 30.5288 35.7591 25.4437C35.7591 20.3586 30.4933 16.2387 23.9998 16.2387Z" fill="black"/>
</g>
</g>
<path d="M77.24 21.032H79.32C79.32 25.608 78.232 29.416 72.712 32.216L71.576 30.6C76.184 28.28 77.24 25.448 77.24 21.288V21.032ZM72.488 21.032H78.504V22.712H72.488V21.032ZM77.288 24.664V26.296L71.976 26.808L71.72 24.984L77.288 24.664ZM81.112 19.592H83.256V34.408H81.112V19.592ZM82.696 25.256H85.304V27H82.696V25.256ZM91.9588 21.032H94.0388C94.0388 25.608 92.9508 29.416 87.4308 32.216L86.2948 30.6C90.9028 28.28 91.9588 25.448 91.9588 21.288V21.032ZM87.2068 21.032H93.2228V22.712H87.2068V21.032ZM92.0068 24.664V26.296L86.6948 26.808L86.4388 24.984L92.0068 24.664ZM95.8308 19.592H97.9748V34.408H95.8308V19.592ZM97.4148 25.256H100.023V27H97.4148V25.256ZM106.71 27.944H108.838V31.32H106.71V27.944ZM107.782 20.36C110.95 20.36 113.318 21.976 113.318 24.44C113.318 26.936 110.95 28.536 107.782 28.536C104.614 28.536 102.246 26.936 102.246 24.44C102.246 21.976 104.614 20.36 107.782 20.36ZM107.782 22.04C105.75 22.04 104.342 22.936 104.342 24.44C104.342 25.976 105.75 26.856 107.782 26.856C109.814 26.856 111.222 25.976 111.222 24.44C111.222 22.936 109.814 22.04 107.782 22.04ZM101.094 30.984H114.502V32.712H101.094V30.984ZM119.969 31.064H133.377V32.792H119.969V31.064ZM125.585 28.264H127.713V31.768H125.585V28.264ZM121.473 20.568H131.873V25.496H123.617V27.992H121.505V23.832H129.761V22.248H121.473V20.568ZM121.505 27.144H132.209V28.856H121.505V27.144ZM136.047 20.968H145.439V22.648H136.047V20.968ZM134.687 30.76H148.079V32.488H134.687V30.76ZM144.319 20.968H146.431V22.728C146.431 24.808 146.431 26.824 145.903 29.864L143.775 29.688C144.319 26.84 144.319 24.728 144.319 22.728V20.968ZM159.566 19.624H161.71V30.264H159.566V19.624ZM151.838 32.472H162.078V34.168H151.838V32.472ZM151.838 29.192H153.966V33.16H151.838V29.192ZM153.646 20.552C155.918 20.552 157.662 22.12 157.662 24.312C157.662 26.488 155.918 28.072 153.646 28.072C151.374 28.072 149.614 26.488 149.614 24.312C149.614 22.12 151.374 20.552 153.646 20.552ZM153.646 22.392C152.542 22.392 151.694 23.096 151.694 24.312C151.694 25.512 152.542 26.216 153.646 26.216C154.734 26.216 155.582 25.512 155.582 24.312C155.582 23.096 154.734 22.392 153.646 22.392Z" fill="black" fill-opacity="0.85"/>
<defs>
<clipPath id="clip0_174_907">
<rect width="24" height="22" fill="white" transform="translate(12 16)"/>
</clipPath>
</defs>
</svg>
