<svg width="61" height="40" viewBox="0 0 61 40" fill="none" xmlns="http://www.w3.org/2000/svg">
<path d="M25.4819 20.8219C25.3791 20.7235 25.4149 20.6267 25.6389 20.6487C25.8629 20.6706 26.1557 20.7292 26.3026 20.7707C28.2129 21.3059 28.7848 23.1191 28.9629 23.6185C29.0391 23.8317 29.6642 25.1926 29.8928 26.2736C30.1397 27.4368 29.991 28.3316 30.0497 28.7758L29.9882 28.7318C28.4084 27.5898 27.5501 25.7213 26.9938 23.8943C26.5183 22.3349 27.0388 22.3113 25.481 20.8219H25.4819Z" fill="white"/>
<path d="M30.8841 18.8836C30.8841 18.6127 30.6363 18.3931 30.3306 18.3931C30.0249 18.3931 29.7771 18.6127 29.7771 18.8836V28.2512C29.7771 28.5221 30.0249 28.7417 30.3306 28.7417C30.6363 28.7417 30.8841 28.5221 30.8841 28.2512V18.8836Z" fill="white"/>
<path d="M33.84 26.4175C32.5503 27.7906 31.1146 28.7757 30.0956 28.7765C29.99 28.7765 29.9047 28.6903 29.9267 28.6032C30.3214 27.0211 31.4974 25.1884 32.8321 23.7681C34.1127 22.4048 34.9434 22.0566 36.4305 21.545C36.5591 21.501 36.7527 21.6523 36.6472 21.728C36.2983 21.9793 35.8889 22.4324 35.7182 22.7993C35.0554 24.222 34.8874 25.3031 33.8409 26.4183L33.84 26.4175Z" fill="white"/>
<path d="M31.0127 10.9382C31.0127 10.9382 31.8756 9.9808 32.6513 11.0952C33.4279 12.2096 33.874 14.7435 33.5665 15.4894C33.259 16.2354 32.7238 18.4976 31.8178 19.6258C30.9117 20.7532 30.6639 20.8362 30.4059 19.8959C30.148 18.9555 29.0345 13.8064 31.0127 10.9382Z" fill="white"/>
<path d="M29.8707 19.8953C29.8707 19.8953 28.9849 16.1681 27.1948 14.69C25.4039 13.2128 24.4969 13.0176 24.2922 13.3259C24.0875 13.6342 23.9847 14.0303 24.3803 14.747C24.776 15.4628 27.3472 18.6987 28.995 19.5918L29.8716 19.8953H29.8707Z" fill="white"/>
<path d="M31.6837 14.7799C31.6837 14.1173 31.0775 13.5801 30.3297 13.5801C29.5819 13.5801 28.9757 14.1173 28.9757 14.7799V19.2807C28.9757 19.9433 29.5819 20.4805 30.3297 20.4805C31.0775 20.4805 31.6837 19.9433 31.6837 19.2807V14.7799Z" fill="white"/>
<path d="M30.7098 20.3617C30.7098 20.3617 30.7079 20.9718 31.0779 20.7473C31.0779 20.7473 31.6993 19.837 31.8958 19.545C32.0922 19.253 33.8584 16.9827 34.5313 16.51C35.2032 16.0374 37.1787 14.4382 37.175 14.4455C37.1714 14.4528 37.3953 14.2739 37.1365 14.3081C36.8776 14.3422 34.4395 14.4162 33.4563 15.8625C32.4732 17.3088 31.0402 19.4929 30.897 19.8557C30.7538 20.2185 30.7116 20.3625 30.7116 20.3625L30.7098 20.3617Z" fill="white"/>
<path d="M26.8304 16.4106C26.8304 16.4106 30.0195 15.9307 31.1678 16.7661C31.2697 16.8401 31.334 16.9467 31.3505 17.063C31.4322 17.6389 31.6791 19.6327 31.3294 20.4543C31.3294 20.4543 31.0301 21.0033 30.5454 21.0017C30.5454 21.0017 29.9166 21.1571 29.5651 20.73C29.2135 20.303 26.4201 16.8515 26.6092 16.5912C26.7203 16.4383 26.8304 16.4098 26.8304 16.4098V16.4106Z" fill="white"/>
<circle cx="30.5" cy="19.5" r="11" stroke="white"/>
<path d="M0 39.0694L0.262551 38.6044C0.716054 39.0049 1.52162 39.2979 2.35553 39.2979C3.54299 39.2979 4.05915 38.849 4.05915 38.2859C4.05915 36.7188 0.153654 37.6811 0.153654 35.567C0.153654 34.7257 0.878659 34 2.49128 34C3.20734 34 3.95025 34.1882 4.45746 34.5067L4.2307 34.9878C3.68769 34.6693 3.05219 34.5147 2.49128 34.5147C1.33067 34.5147 0.814514 34.9797 0.814514 35.5509C0.814514 37.118 4.72001 36.1718 4.72001 38.2536C4.72001 39.0949 3.9771 39.8126 2.35553 39.8126C1.40377 39.8126 0.471404 39.5102 0 39.0694Z" fill="#BFBFBF"/>
<path d="M8.2287 34.5711H5.99997V34.0483H11.1287V34.5711H8.9V39.7628H8.2287V34.5711Z" fill="#BFBFBF"/>
<path d="M12.9233 37.3222V34.0483H13.5947V37.298C13.5947 38.6527 14.3018 39.2736 15.534 39.2736C16.7662 39.2736 17.4822 38.6527 17.4822 37.298V34.0483H18.1342V37.3222C18.1342 38.9632 17.1555 39.8125 15.534 39.8125C13.9124 39.8125 12.9248 38.9632 12.9248 37.3222H12.9233Z" fill="#BFBFBF"/>
<path d="M21.061 34.0483H23.6433C25.6736 34.0483 27.0416 35.2243 27.0416 36.9056C27.0416 38.5869 25.6736 39.7628 23.6433 39.7628H21.061V34.0483ZM23.6075 39.24C25.2932 39.24 26.3807 38.2764 26.3807 36.9056C26.3807 35.5347 25.2932 34.5711 23.6075 34.5711H21.7323V39.2414H23.6075V39.24Z" fill="#BFBFBF"/>
<path d="M31.3543 37.7887V39.7643H30.6935V37.7887L28.156 34.0498H28.872L31.047 37.2578L33.2221 34.0498H33.8934L31.3558 37.7887H31.3543Z" fill="#BFBFBF"/>
<path d="M44.4224 34.0483V39.7628H43.7615V37.126H39.7919V39.7628H39.1206V34.0483H39.7919V36.5951H43.7615V34.0483H44.4224Z" fill="#BFBFBF"/>
<path d="M47.3403 37.3222V34.0483H48.0116V37.298C48.0116 38.6527 48.7187 39.2736 49.9509 39.2736C51.1832 39.2736 51.8992 38.6527 51.8992 37.298V34.0483H52.5511V37.3222C52.5511 38.9632 51.5725 39.8125 49.9509 39.8125C48.3294 39.8125 47.3418 38.9632 47.3418 37.3222H47.3403Z" fill="#BFBFBF"/>
<path d="M60.7783 38.2376C60.7783 39.2092 59.9802 39.7643 58.3944 39.7643H55.4765V34.0498H58.2125C59.6267 34.0498 60.4412 34.5887 60.4412 35.5187C60.4412 36.1719 60.0518 36.6047 59.4715 36.817C60.2875 36.9796 60.7768 37.4621 60.7768 38.2376H60.7783ZM56.1478 34.5471V36.6208H58.1692C59.1836 36.6208 59.7729 36.27 59.7729 35.5846C59.7729 34.8992 59.1836 34.5484 58.1692 34.5484H56.1478V34.5471ZM60.1085 38.1878C60.1085 37.4446 59.5014 37.118 58.387 37.118H56.1493V39.2657H58.387C59.5014 39.2657 60.1085 38.9391 60.1085 38.1878Z" fill="#BFBFBF"/>
</svg>
