<svg width="61" height="40" viewBox="0 0 61 40" fill="none" xmlns="http://www.w3.org/2000/svg">
<path d="M25.4819 20.8219C25.3791 20.7235 25.4149 20.6267 25.6389 20.6487C25.8629 20.6706 26.1557 20.7292 26.3026 20.7707C28.2129 21.3059 28.7848 23.1191 28.9629 23.6185C29.0391 23.8317 29.6642 25.1926 29.8928 26.2736C30.1397 27.4368 29.991 28.3316 30.0497 28.7758L29.9882 28.7318C28.4084 27.5898 27.5501 25.7213 26.9938 23.8943C26.5183 22.3349 27.0388 22.3113 25.481 20.8219H25.4819Z" fill="white"/>
<path d="M30.8841 18.8836C30.8841 18.6127 30.6363 18.3931 30.3306 18.3931C30.0249 18.3931 29.7771 18.6127 29.7771 18.8836V28.2512C29.7771 28.5221 30.0249 28.7417 30.3306 28.7417C30.6363 28.7417 30.8841 28.5221 30.8841 28.2512V18.8836Z" fill="white"/>
<path d="M33.84 26.4175C32.5503 27.7906 31.1146 28.7757 30.0956 28.7765C29.99 28.7765 29.9047 28.6903 29.9267 28.6032C30.3214 27.0211 31.4974 25.1884 32.8321 23.7681C34.1127 22.4048 34.9434 22.0566 36.4305 21.545C36.5591 21.501 36.7527 21.6523 36.6472 21.728C36.2983 21.9793 35.8889 22.4324 35.7182 22.7993C35.0554 24.222 34.8874 25.3031 33.8409 26.4183L33.84 26.4175Z" fill="white"/>
<path d="M31.0127 10.9382C31.0127 10.9382 31.8756 9.9808 32.6513 11.0952C33.4279 12.2096 33.874 14.7435 33.5665 15.4894C33.259 16.2354 32.7238 18.4976 31.8178 19.6258C30.9117 20.7532 30.6639 20.8362 30.4059 19.8959C30.148 18.9555 29.0345 13.8064 31.0127 10.9382Z" fill="white"/>
<path d="M29.8707 19.8953C29.8707 19.8953 28.9849 16.1681 27.1948 14.69C25.4039 13.2128 24.4969 13.0176 24.2922 13.3259C24.0875 13.6342 23.9847 14.0303 24.3803 14.747C24.776 15.4628 27.3472 18.6987 28.995 19.5918L29.8716 19.8953H29.8707Z" fill="white"/>
<path d="M31.6837 14.7799C31.6837 14.1173 31.0775 13.5801 30.3297 13.5801C29.5819 13.5801 28.9757 14.1173 28.9757 14.7799V19.2807C28.9757 19.9433 29.5819 20.4805 30.3297 20.4805C31.0775 20.4805 31.6837 19.9433 31.6837 19.2807V14.7799Z" fill="white"/>
<path d="M30.7098 20.3617C30.7098 20.3617 30.7079 20.9718 31.0779 20.7473C31.0779 20.7473 31.6993 19.837 31.8958 19.545C32.0922 19.253 33.8584 16.9827 34.5313 16.51C35.2032 16.0374 37.1787 14.4382 37.175 14.4455C37.1714 14.4528 37.3953 14.2739 37.1365 14.3081C36.8776 14.3422 34.4395 14.4162 33.4563 15.8625C32.4732 17.3088 31.0402 19.4929 30.897 19.8557C30.7538 20.2185 30.7116 20.3625 30.7116 20.3625L30.7098 20.3617Z" fill="white"/>
<path d="M26.8304 16.4106C26.8304 16.4106 30.0195 15.9307 31.1678 16.7661C31.2697 16.8401 31.334 16.9467 31.3505 17.063C31.4322 17.6389 31.6791 19.6327 31.3294 20.4543C31.3294 20.4543 31.0301 21.0033 30.5454 21.0017C30.5454 21.0017 29.9166 21.1571 29.5651 20.73C29.2135 20.303 26.4201 16.8515 26.6092 16.5912C26.7203 16.4383 26.8304 16.4098 26.8304 16.4098V16.4106Z" fill="white"/>
<circle cx="30.5" cy="19.5" r="11" stroke="white"/>
</svg>
