<svg width="24" height="24" viewBox="0 0 24 24" fill="none" xmlns="http://www.w3.org/2000/svg">
<path d="M21.7777 7.22008L14.4445 0.915623C13.7722 0.325982 12.9019 0 12 0C11.0981 0 10.2279 0.325982 9.55561 0.915623L2.22233 7.22008C1.83412 7.56056 1.52432 7.97824 1.31358 8.44531C1.10284 8.91237 0.995976 9.41811 1.00012 9.92884V20.4043C1.00012 21.3579 1.38642 22.2725 2.07405 22.9468C2.76168 23.6212 3.6943 24 4.66676 24H19.3333C20.3058 24 21.2384 23.6212 21.926 22.9468C22.6137 22.2725 23 21.3579 23 20.4043V9.91685C23.0024 9.40814 22.8947 8.90471 22.684 8.43984C22.4733 7.97496 22.1644 7.55922 21.7777 7.22008ZM14.4445 22.08H9.55561V15.61C9.55561 15.2922 9.68438 14.9873 9.91359 14.7625C10.1428 14.5378 10.4537 14.4115 10.7778 14.4115H13.2223C13.5464 14.4115 13.8573 14.5378 14.0865 14.7625C14.3157 14.9873 14.4445 15.2922 14.4445 15.61V22.08ZM21.087 20.4043C21.087 20.7222 20.8379 21.3752 20.6087 21.6C20.3795 21.8248 20.1889 22.08 19.8647 22.08H16.3043V15.61C16.3043 14.6564 16.0355 14.1143 15.3478 13.44C14.6602 12.7657 14.1947 12.48 13.2223 12.48H10.7778C9.80537 12.48 9.3398 12.7657 8.65217 13.44C7.96455 14.1143 7.69565 14.6564 7.69565 15.61V22.08H4.13526C3.81111 22.08 3.62051 21.8248 3.3913 21.6C3.16209 21.3752 2.91304 20.7222 2.91304 20.4043L2.97448 9.91685C2.9747 9.74667 3.01187 9.57849 3.08352 9.4235C3.15517 9.2685 3.25966 9.13025 3.39003 9.01793L11.1934 2.21812C11.4164 2.02597 11.7032 1.92 12 1.92C12.2969 1.92 12.5837 2.02597 12.8067 2.21812L20.6714 9.01793C20.8018 9.13025 20.9063 9.2685 20.9779 9.4235C21.0496 9.57849 21.0867 9.74667 21.087 9.91685V20.4043Z" fill="white"/>
</svg>
