<svg width="24" height="24" viewBox="0 0 24 24" fill="none" xmlns="http://www.w3.org/2000/svg">
<g opacity="0.3">
<path d="M18.5447 4.95879L17.7429 2.30544C17.9391 2.17953 18.0716 1.95954 18.0716 1.70839C18.0716 1.31677 17.7548 1 17.3625 1H6.42786C5.69029 1 5.01634 1.30086 4.5346 1.7846C4.05086 2.26634 3.74932 2.94029 3.75 3.67718V20.9648C3.75 21.931 4.53328 22.7143 5.49944 22.7143H18.3287C19.1425 22.7143 19.8025 22.0549 19.8025 21.2412V6.41067C19.8025 5.67048 19.2551 5.06481 18.5447 4.95879ZM6.42786 4.93758C6.07729 4.93758 5.7665 4.79707 5.53655 4.56848C5.30728 4.33721 5.16677 4.02706 5.16677 3.67718C5.16677 3.32729 5.30728 3.0165 5.53655 2.78587C5.7665 2.55724 6.07729 2.41677 6.42786 2.41677H16.6906L17.4526 4.93758H6.42786Z" fill="white"/>
</g>
</svg>
