<svg width="100" height="100" viewBox="0 0 100 100" fill="none" xmlns="http://www.w3.org/2000/svg">
<circle cx="49.9999" cy="49.9999" r="35.7143" fill="#90B54C"/>
<path fill-rule="evenodd" clip-rule="evenodd" d="M8.3335 50.0002C8.3335 26.9883 26.9883 8.3335 50.0002 8.3335C73.0118 8.3335 91.6668 26.9883 91.6668 50.0002C91.6668 73.0118 73.0118 91.6668 50.0002 91.6668C26.9883 91.6668 8.3335 73.0118 8.3335 50.0002ZM49.9997 25.0002C40.795 25.0002 33.3331 32.4621 33.3331 41.6668C33.3331 50.8714 40.795 58.3335 49.9997 58.3335C59.2043 58.3335 66.6664 50.8714 66.6664 41.6668C66.6664 32.4621 59.2043 25.0002 49.9997 25.0002ZM71.2981 66.656C74.4556 68.6893 74.3014 73.1214 71.426 75.5368C65.6322 80.4027 58.1589 83.3335 50.0006 83.3335C41.8964 83.3335 34.4675 80.4414 28.69 75.6327C25.789 73.2181 25.6352 68.7635 28.8065 66.7168C29.7937 66.0797 30.8687 65.5214 32.0355 65.0406C36.73 63.1052 42.726 62.5002 50.0002 62.5002C57.311 62.5002 63.341 63.0664 68.0477 64.981C69.2235 65.4593 70.306 66.0172 71.2981 66.656Z" fill="#FEFEFE"/>
</svg>
