<svg width="24" height="24" viewBox="0 0 24 24" fill="none" xmlns="http://www.w3.org/2000/svg">
<g opacity="0.3">
<path d="M9.26123 5.49481C9.26123 5.2197 9.37052 4.95586 9.56505 4.76133C9.75957 4.5668 10.0234 4.45752 10.2985 4.45752H13.0646C13.3397 4.45752 13.6036 4.5668 13.7981 4.76133C13.9926 4.95586 14.1019 5.2197 14.1019 5.49481C14.1019 5.76992 13.9926 6.03375 13.7981 6.22828C13.6036 6.42281 13.3397 6.5321 13.0646 6.5321H10.2985C10.0234 6.5321 9.75957 6.42281 9.56505 6.22828C9.37052 6.03375 9.26123 5.76992 9.26123 5.49481Z" fill="black"/>
<path fill-rule="evenodd" clip-rule="evenodd" d="M5.11187 1C4.28655 1 3.49503 1.32786 2.91144 1.91145C2.32786 2.49503 2 3.28655 2 4.11187V17.2509C2 18.0762 2.32786 18.8677 2.91144 19.4513C3.49503 20.0349 4.28655 20.3627 5.11187 20.3627H7.42157L7.26251 21.6255C7.24151 21.7927 7.26451 21.9625 7.32924 22.118C7.39398 22.2736 7.4982 22.4096 7.63161 22.5126C7.76503 22.6155 7.923 22.6819 8.08992 22.7051C8.25683 22.7283 8.42691 22.7075 8.58333 22.6448L11.6814 21.4056L14.7794 22.6448C14.9358 22.7075 15.1059 22.7283 15.2728 22.7051C15.4397 22.6819 15.5977 22.6155 15.7311 22.5126C15.8645 22.4096 15.9688 22.2736 16.0335 22.118C16.0982 21.9625 16.1212 21.7927 16.1002 21.6255L15.9412 20.3627H18.2495C18.6583 20.3629 19.0631 20.2826 19.4408 20.1263C19.8185 19.9699 20.1617 19.7408 20.4508 19.4518C20.7399 19.1628 20.9693 18.8197 21.1257 18.442C21.2822 18.0644 21.3627 17.6596 21.3627 17.2509V4.11187C21.3627 3.28655 21.0349 2.49503 20.4513 1.91145C19.8677 1.32786 19.0762 1 18.2509 1L5.11187 1ZM15.6825 18.2882H18.2509C18.526 18.2882 18.7898 18.1789 18.9843 17.9843C19.1789 17.7898 19.2882 17.526 19.2882 17.2509V4.11187C19.2882 3.83676 19.1789 3.57292 18.9843 3.37839C18.7898 3.18386 18.526 3.07458 18.2509 3.07458H5.11187C4.83676 3.07458 4.57292 3.18386 4.37839 3.37839C4.18386 3.57292 4.07458 3.83676 4.07458 4.11187V17.2509C4.07458 17.8235 4.53928 18.2882 5.11187 18.2882H7.6802L7.91808 16.3823C7.36844 15.6775 7.0278 14.8325 6.93496 13.9436C6.84212 13.0547 7.00081 12.1575 7.39297 11.3544C7.78513 10.5512 8.39497 9.87438 9.15304 9.40092C9.9111 8.92746 10.7869 8.67643 11.6807 8.67643C12.5744 8.67643 13.4502 8.92746 14.2083 9.40092C14.9664 9.87438 15.5762 10.5512 15.9684 11.3544C16.3605 12.1575 16.5192 13.0547 16.4264 13.9436C16.3336 14.8325 15.9929 15.6775 15.4433 16.3823L15.6825 18.2882ZM13.6688 17.7875C13.063 18.0641 12.3909 18.219 11.6814 18.219C10.9719 18.219 10.2983 18.0641 9.69392 17.7875L9.38827 20.2369L11.3218 19.4638C11.5526 19.3714 11.8101 19.3714 12.041 19.4638L13.9745 20.2383L13.6688 17.7875ZM8.84611 13.4475C8.84611 12.6955 9.14482 11.9744 9.67654 11.4426C10.2083 10.9109 10.9294 10.6122 11.6814 10.6122C12.4333 10.6122 13.1545 10.9109 13.6862 11.4426C14.2179 11.9744 14.5166 12.6955 14.5166 13.4475C14.5166 14.1994 14.2179 14.9206 13.6862 15.4523C13.1545 15.984 12.4333 16.2827 11.6814 16.2827C10.9294 16.2827 10.2083 15.984 9.67654 15.4523C9.14482 14.9206 8.84611 14.1994 8.84611 13.4475Z" fill="black"/>
</g>
</svg>
