<svg width="32" height="32" viewBox="0 0 32 32" fill="none" xmlns="http://www.w3.org/2000/svg">
<path d="M10.6665 13.3334H10.6798" stroke="#FEFEFE" stroke-width="3" stroke-linecap="round" stroke-linejoin="round"/>
<path d="M16 13.3334H16.0133" stroke="#FEFEFE" stroke-width="3" stroke-linecap="round" stroke-linejoin="round"/>
<path d="M21.3335 13.3334H21.3468" stroke="#FEFEFE" stroke-width="3" stroke-linecap="round" stroke-linejoin="round"/>
<path d="M28 17.3333V9.33333C28 6.81917 28 5.56209 27.2189 4.78105C26.4379 4 25.1808 4 22.6667 4H9.33333C6.81917 4 5.56209 4 4.78105 4.78105C4 5.56209 4 6.81917 4 9.33333V17.3333C4 19.8475 4 21.1045 4.78105 21.8856C5.56209 22.6667 6.81917 22.6667 9.33333 22.6667H10C10.3682 22.6667 10.6667 22.9652 10.6667 23.3333V26.6667V26.8665C10.6667 27.3383 11.2018 27.6108 11.5833 27.3333L17.4608 23.0588C17.8112 22.804 18.2333 22.6667 18.6667 22.6667H22.6667C25.1808 22.6667 26.4379 22.6667 27.2189 21.8856C28 21.1045 28 19.8475 28 17.3333Z" stroke="#FEFEFE" stroke-width="3" stroke-linejoin="round"/>
</svg>
