<svg width="20" height="20" viewBox="0 0 20 20" fill="none" xmlns="http://www.w3.org/2000/svg">
<path fill-rule="evenodd" clip-rule="evenodd" d="M1.98998 14.854L0.675982 18.358C0.625525 18.4928 0.614948 18.6393 0.645516 18.78C0.676083 18.9207 0.746502 19.0496 0.848363 19.1514C0.950224 19.2532 1.07922 19.3234 1.21995 19.3539C1.36068 19.3843 1.50719 19.3736 1.64198 19.323L5.14498 18.009C5.54593 17.8588 5.91008 17.6245 6.21298 17.322L16.36 7.17496C16.36 7.17496 16.006 6.11396 14.946 5.05296C13.886 3.99296 12.824 3.63896 12.824 3.63896L2.67698 13.786C2.3744 14.0889 2.14015 14.453 1.98998 14.854ZM14.239 2.22396L15.622 0.840962C15.87 0.592962 16.201 0.434962 16.547 0.492962C17.034 0.572962 17.779 0.814962 18.481 1.51796C19.184 2.22096 19.426 2.96496 19.506 3.45196C19.564 3.79796 19.406 4.12896 19.158 4.37696L17.774 5.75996C17.774 5.75996 17.421 4.69996 16.36 3.63996C15.3 2.57796 14.239 2.22396 14.239 2.22396Z" fill="#424242"/>
</svg>
