<svg width="1020" height="599" viewBox="0 0 1020 599" fill="none" xmlns="http://www.w3.org/2000/svg">
<path d="M535.762 263.281C564.188 263.281 587.233 240.237 587.233 211.81C587.233 183.383 564.188 160.339 535.762 160.339C507.335 160.339 484.291 183.383 484.291 211.81C484.291 240.237 507.335 263.281 535.762 263.281Z" fill="url(#paint0_linear_387_416)"/>
<path d="M412.15 373.779C412.15 354.663 456.243 339.167 510.632 339.167C565.022 339.167 609.115 354.663 609.115 373.779H412.15Z" fill="url(#paint1_linear_387_416)" fill-opacity="0.5"/>
<path d="M534.839 145.498C498.216 145.498 468.527 175.188 468.527 211.81C468.527 234.567 479.992 254.643 497.458 266.585L455.159 344.723C453.61 347.585 454.673 351.162 457.536 352.712L460.98 354.574C463.842 356.124 467.419 355.06 468.968 352.198L511.379 273.847C518.673 276.605 526.577 278.118 534.835 278.118C571.457 278.118 601.147 248.429 601.147 211.806C601.147 175.184 571.457 145.494 534.835 145.494L534.839 145.498ZM534.839 262.358C506.919 262.358 484.287 239.726 484.287 211.806C484.287 183.887 506.919 161.254 534.839 161.254C562.758 161.254 585.391 183.887 585.391 211.806C585.391 239.726 562.758 262.358 534.839 262.358Z" fill="#949494"/>
<path d="M517.505 308.932C515.964 308.932 514.715 310.18 514.715 311.721V320.44H510.452V306.238H510.448C510.448 306.174 510.452 306.11 510.452 306.045C510.452 302.794 507.815 300.156 504.563 300.156C501.311 300.156 498.674 302.794 498.674 306.045C498.674 306.11 498.674 306.174 498.678 306.238H498.674V328.172H494.451V320.585C494.451 319.044 493.203 317.795 491.661 317.795C490.12 317.795 488.871 319.044 488.871 320.585V329.36C488.903 332.415 491.388 334.884 494.447 334.884H498.67V351.499H510.452V326.582H514.715C517.798 326.582 520.295 324.086 520.295 321.003V311.721C520.295 310.18 519.046 308.932 517.505 308.932Z" fill="#A7A7A7"/>
<path d="M563.593 285.006C561.084 285.006 559.053 287.038 559.053 289.547V303.733H552.116V280.623H552.108C552.108 280.518 552.116 280.414 552.116 280.306C552.116 275.011 547.825 270.72 542.53 270.72C537.235 270.72 532.944 275.011 532.944 280.306C532.944 280.41 532.948 280.514 532.952 280.623H532.944V316.31H526.072V303.966C526.072 301.457 524.04 299.426 521.531 299.426C519.022 299.426 516.991 301.457 516.991 303.966V318.249H516.995C517.047 323.218 521.086 327.233 526.072 327.233H532.944V354.269H552.112V313.725H559.049C564.063 313.725 568.129 309.658 568.129 304.644V289.543C568.129 287.034 566.098 285.002 563.589 285.002L563.593 285.006Z" fill="#C7C7C7"/>
<path d="M346.732 406.264H350.19V424.594H346.732V406.264ZM343.586 412.218H348.032V414.974H343.586V412.218ZM343.586 417.392H348.032V420.122H343.586V417.392ZM330.118 408.76H343.326V411.464H330.118V408.76ZM336.878 412.322C340.154 412.322 342.52 414.272 342.52 417.054C342.52 419.836 340.154 421.786 336.878 421.786C333.602 421.786 331.236 419.836 331.236 417.054C331.236 414.272 333.602 412.322 336.878 412.322ZM336.878 414.974C335.474 414.974 334.486 415.728 334.486 417.054C334.486 418.406 335.474 419.134 336.878 419.134C338.282 419.134 339.27 418.406 339.27 417.054C339.27 415.728 338.282 414.974 336.878 414.974ZM335.162 406.186H338.62V410.424H335.162V406.186ZM334.252 427.142H350.71V429.898H334.252V427.142ZM334.252 423.086H337.736V428.416H334.252V423.086ZM371.534 406.238H374.81V430.314H371.534V406.238ZM368.648 415.468H372.652V418.276H368.648V415.468ZM366.36 406.602H369.584V429.222H366.36V406.602ZM358.248 409.982H360.874V412.114C360.874 418.068 359.574 423.32 355.57 425.738L353.49 423.086C357.104 421.006 358.248 416.742 358.248 412.114V409.982ZM358.95 409.982H361.602V412.114C361.602 416.352 362.824 420.356 366.412 422.228L364.436 424.854C360.38 422.67 358.95 417.704 358.95 412.114V409.982ZM354.27 408.682H365.216V411.464H354.27V408.682ZM390.48 408.916H393.34V410.944C393.34 415.494 391.13 419.602 386.502 421.11L384.734 418.406C388.738 417.106 390.48 413.986 390.48 410.944V408.916ZM391.182 408.916H394.016V410.944C394.016 413.804 395.732 416.742 399.658 417.99L397.89 420.668C393.366 419.238 391.182 415.312 391.182 410.944V408.916ZM385.644 407.954H398.748V410.684H385.644V407.954ZM401.166 406.264H404.65V423.632H401.166V406.264ZM388.608 427.142H405.248V429.898H388.608V427.142ZM388.608 422.072H392.066V428.52H388.608V422.072ZM425.786 406.238H429.062V421.318H425.786V406.238ZM422.848 412.166H426.696V414.974H422.848V412.166ZM420.794 406.706H424.018V420.538H420.794V406.706ZM408.444 408.708H420.118V411.36H408.444V408.708ZM414.32 412.14C417.336 412.14 419.52 413.856 419.52 416.352C419.52 418.848 417.336 420.538 414.32 420.538C411.304 420.538 409.12 418.848 409.12 416.352C409.12 413.856 411.304 412.14 414.32 412.14ZM414.32 414.61C413.046 414.61 412.188 415.234 412.188 416.352C412.188 417.47 413.046 418.094 414.32 418.094C415.568 418.094 416.426 417.47 416.426 416.352C416.426 415.234 415.568 414.61 414.32 414.61ZM412.578 406.472H415.984V410.528H412.578V406.472ZM420.924 421.578C426.072 421.578 429.192 423.138 429.192 425.946C429.192 428.728 426.072 430.314 420.924 430.314C415.75 430.314 412.63 428.728 412.63 425.946C412.63 423.138 415.75 421.578 420.924 421.578ZM420.924 424.152C417.7 424.152 416.088 424.698 416.088 425.946C416.088 427.168 417.7 427.74 420.924 427.74C424.122 427.74 425.734 427.168 425.734 425.946C425.734 424.698 424.122 424.152 420.924 424.152ZM441.618 418.328H445.076V422.566H441.618V418.328ZM432.466 417.184H454.228V419.914H432.466V417.184ZM443.308 421.63C448.508 421.63 451.654 423.19 451.654 425.972C451.654 428.754 448.508 430.314 443.308 430.314C438.082 430.314 434.936 428.754 434.936 425.972C434.936 423.19 438.082 421.63 443.308 421.63ZM443.308 424.23C440.084 424.23 438.446 424.776 438.446 425.972C438.446 427.142 440.084 427.714 443.308 427.714C446.532 427.714 448.17 427.142 448.17 425.972C448.17 424.776 446.532 424.23 443.308 424.23ZM440.968 408.5H444.036V409.098C444.036 412.712 440.786 415.676 434.572 416.248L433.376 413.544C438.654 413.102 440.968 410.97 440.968 409.098V408.5ZM442.658 408.5H445.726V409.098C445.726 410.996 448.014 413.102 453.318 413.544L452.122 416.248C445.934 415.676 442.658 412.738 442.658 409.098V408.5ZM434.442 407.226H452.278V409.956H434.442V407.226ZM472.92 406.264H476.404V423.554H472.92V406.264ZM460.362 427.142H477.002V429.898H460.362V427.142ZM460.362 421.812H463.82V428.26H460.362V421.812ZM463.3 407.772C466.992 407.772 469.826 410.32 469.826 413.882C469.826 417.418 466.992 419.992 463.3 419.992C459.608 419.992 456.748 417.418 456.748 413.882C456.748 410.32 459.608 407.772 463.3 407.772ZM463.3 410.762C461.506 410.762 460.128 411.906 460.128 413.882C460.128 415.832 461.506 416.976 463.3 416.976C465.068 416.976 466.446 415.832 466.446 413.882C466.446 411.906 465.068 410.762 463.3 410.762ZM496 407.616H499.016V409.358C499.016 414.584 495.298 419.212 489.058 420.434L487.576 417.574C493.01 416.638 496 412.816 496 409.358V407.616ZM496.702 407.616H499.692V409.358C499.692 412.894 502.656 416.638 508.116 417.574L506.634 420.434C500.394 419.212 496.702 414.662 496.702 409.358V407.616ZM487.082 424.568H508.87V427.376H487.082V424.568ZM527.744 406.212H531.176V430.366H527.744V406.212ZM523.61 414.688H528.134V417.496H523.61V414.688ZM512.066 422.124H513.99C517.968 422.124 520.932 422.072 524.338 421.526L524.65 424.282C521.166 424.828 518.046 424.932 513.99 424.932H512.066V422.124ZM512.066 408.24H523.22V411.048H515.498V423.008H512.066V408.24ZM514.718 414.948H522.388V417.652H514.718V414.948ZM551.402 406.238H554.886V430.392H551.402V406.238ZM536.348 421.76H538.428C543.498 421.76 546.358 421.656 549.582 421.058L549.894 423.892C546.644 424.542 543.602 424.646 538.428 424.646H536.348V421.76ZM536.348 408.37H547.97V411.152H539.78V422.852H536.348V408.37ZM574.202 406.212H577.686V430.288H574.202V406.212ZM576.776 415.416H581.014V418.25H576.776V415.416ZM567.884 408.708H571.264C571.264 415.936 568.508 422.124 560.5 426.154L558.576 423.528C564.894 420.252 567.884 415.832 567.884 409.306V408.708ZM559.902 408.708H569.652V411.49H559.902V408.708ZM592.133 420.33H595.331V422.696H597.723V420.33H600.921V430.054H592.133V420.33ZM595.331 425.192V427.454H597.723V425.192H595.331ZM604.639 420.148H607.265V421.942C607.265 425.478 605.835 428.91 602.273 430.288L600.583 427.714C603.469 426.518 604.639 424.204 604.639 421.942V420.148ZM605.445 420.148H608.071V421.942C608.071 424.438 609.215 426.726 612.153 427.714L610.437 430.288C606.797 428.988 605.445 425.738 605.445 421.942V420.148ZM601.649 411.386H607.681V414.194H601.649V411.386ZM596.137 407.148C599.751 407.148 602.481 409.488 602.481 412.816C602.481 416.144 599.751 418.51 596.137 418.51C592.497 418.51 589.767 416.144 589.767 412.816C589.767 409.488 592.497 407.148 596.137 407.148ZM596.137 409.982C594.369 409.982 593.069 411.048 593.069 412.816C593.069 414.584 594.369 415.676 596.137 415.676C597.905 415.676 599.179 414.584 599.179 412.816C599.179 411.048 597.905 409.982 596.137 409.982ZM606.173 406.238H609.631V418.978H606.173V406.238ZM615.947 420.668H619.353V422.696H628.999V420.668H632.431V430.054H615.947V420.668ZM619.353 425.27V427.35H628.999V425.27H619.353ZM613.399 416.742H635.161V419.472H613.399V416.742ZM622.525 406.498H625.489V407.226C625.489 411.412 621.901 414.87 615.687 415.676L614.465 412.998C619.899 412.348 622.525 409.67 622.525 407.226V406.498ZM623.097 406.498H626.061V407.226C626.061 409.644 628.687 412.348 634.095 412.998L632.873 415.676C626.659 414.87 623.097 411.386 623.097 407.226V406.498ZM653.983 406.238H657.441V430.314H653.983V406.238ZM638.591 408.526H642.023V423.476H638.591V408.526ZM638.591 421.448H640.723C644.233 421.448 648.133 421.188 652.111 420.408L652.501 423.268C648.367 424.126 644.389 424.386 640.723 424.386H638.591V421.448ZM676.627 406.212H680.111V430.366H676.627V406.212ZM679.331 415.13H683.595V417.964H679.331V415.13ZM662.171 421.708H664.199C668.255 421.708 671.453 421.578 674.989 420.954L675.327 423.814C671.687 424.464 668.385 424.568 664.199 424.568H662.171V421.708ZM662.171 408.448H673.403V411.23H665.603V423.086H662.171V408.448ZM685.595 426.18C685.595 425.383 685.812 424.828 686.245 424.516C686.679 424.187 687.207 424.022 687.831 424.022C688.438 424.022 688.958 424.187 689.391 424.516C689.825 424.828 690.041 425.383 690.041 426.18C690.041 426.943 689.825 427.497 689.391 427.844C688.958 428.173 688.438 428.338 687.831 428.338C687.207 428.338 686.679 428.173 686.245 427.844C685.812 427.497 685.595 426.943 685.595 426.18Z" fill="#424242"/>
<path d="M241.65 445.625H242.895V455.96H241.65V445.625ZM239.355 449.21H242.175V450.23H239.355V449.21ZM239.355 452.075H242.175V453.08H239.355V452.075ZM231.765 447.26H239.355V448.265H231.765V447.26ZM235.605 449.015C237.405 449.015 238.665 450.05 238.665 451.61C238.665 453.155 237.405 454.205 235.605 454.205C233.79 454.205 232.53 453.155 232.53 451.61C232.53 450.05 233.79 449.015 235.605 449.015ZM235.605 449.99C234.48 449.99 233.715 450.65 233.715 451.61C233.715 452.57 234.48 453.215 235.605 453.215C236.73 453.215 237.495 452.57 237.495 451.61C237.495 450.65 236.73 449.99 235.605 449.99ZM234.99 445.595H236.235V447.905H234.99V445.595ZM234.18 457.85H243.225V458.87H234.18V457.85ZM234.18 455.075H235.425V458.345H234.18V455.075ZM255.914 445.61H257.099V459.17H255.914V445.61ZM253.769 451.07H256.379V452.12H253.769V451.07ZM252.959 445.895H254.129V458.495H252.959V445.895ZM248.339 447.71H249.314V449.27C249.314 452.525 248.249 455.135 246.164 456.38L245.399 455.42C247.349 454.34 248.339 452.03 248.339 449.27V447.71ZM248.564 447.71H249.539V449.27C249.539 451.76 250.544 453.965 252.449 454.94L251.714 455.9C249.644 454.76 248.564 452.255 248.564 449.27V447.71ZM245.714 447.2H252.014V448.235H245.714V447.2ZM273.534 445.61H274.734V459.17H273.534V445.61ZM271.344 451.055H273.939V452.075H271.344V451.055ZM267.834 447.35H269.034C269.034 450.845 267.834 454.085 263.964 456.26L263.229 455.375C266.634 453.47 267.834 450.725 267.834 447.59V447.35ZM263.754 447.35H268.254V448.385H263.754V447.35ZM270.519 445.97H271.704V458.51H270.519V445.97ZM284.003 448.055H287.468V449.09H284.003V448.055ZM286.943 445.61H288.188V452.6H286.943V445.61ZM279.458 453.305H288.188V456.545H280.718V458.6H279.503V455.615H286.958V454.295H279.458V453.305ZM279.503 458H288.698V458.99H279.503V458ZM280.418 446.03H281.438V447.305C281.438 449.81 279.938 451.835 277.673 452.645L277.028 451.655C279.068 450.965 280.418 449.27 280.418 447.305V446.03ZM280.628 446.03H281.633V447.305C281.633 449.075 282.998 450.71 284.963 451.355L284.318 452.33C282.128 451.55 280.628 449.6 280.628 447.305V446.03ZM291.907 451.445H298.852V452.465H291.907V451.445ZM294.682 452.255H295.942V455.375H294.682V452.255ZM291.907 446.885H298.777V447.905H293.152V451.805H291.907V446.885ZM300.637 445.595H301.882V459.185H300.637V445.595ZM291.082 456.245L290.902 455.21C293.557 455.195 296.887 455.165 299.752 454.82L299.857 455.75C296.887 456.2 293.647 456.26 291.082 456.245ZM308.256 446.645C310.221 446.645 311.631 448.49 311.631 451.37C311.631 454.265 310.221 456.11 308.256 456.11C306.276 456.11 304.881 454.265 304.881 451.37C304.881 448.49 306.276 446.645 308.256 446.645ZM308.256 447.77C306.951 447.77 306.066 449.18 306.066 451.37C306.066 453.575 306.951 455.015 308.256 455.015C309.561 455.015 310.446 453.575 310.446 451.37C310.446 449.18 309.561 447.77 308.256 447.77ZM314.571 445.595H315.801V459.185H314.571V445.595ZM311.226 450.77H315.111V451.79H311.226V450.77ZM325.711 453.95H326.671V454.685C326.671 456.455 325.561 458.24 323.611 458.99L322.981 458.06C324.691 457.445 325.711 455.99 325.711 454.685V453.95ZM325.981 453.95H326.911V454.685C326.911 456.05 327.721 457.505 329.341 458.165L328.816 459.11C326.866 458.345 325.981 456.485 325.981 454.685V453.95ZM330.721 453.95H331.651V454.685C331.651 456.275 330.751 458.285 328.816 459.11L328.291 458.165C329.896 457.43 330.721 455.855 330.721 454.685V453.95ZM330.976 453.95H331.936V454.685C331.936 456.08 332.941 457.475 334.666 458.06L334.036 458.99C332.056 458.27 330.976 456.56 330.976 454.685V453.95ZM332.191 445.625H333.451V453.365H332.191V445.625ZM326.176 446.405C328.231 446.405 329.701 447.695 329.701 449.57C329.701 451.445 328.231 452.72 326.176 452.72C324.121 452.72 322.636 451.445 322.636 449.57C322.636 447.695 324.121 446.405 326.176 446.405ZM326.176 447.44C324.826 447.44 323.851 448.31 323.851 449.57C323.851 450.83 324.826 451.685 326.176 451.685C327.526 451.685 328.501 450.83 328.501 449.57C328.501 448.31 327.526 447.44 326.176 447.44ZM337.785 449.675H346.995V450.695H337.785V449.675ZM336.12 452.51H348.42V453.53H336.12V452.51ZM337.785 446.105H339.015V450.185H337.785V446.105ZM337.695 457.82H347.07V458.84H337.695V457.82ZM337.695 454.88H338.925V458.09H337.695V454.88ZM359.26 446.54H360.34V447.575C360.34 450.53 357.595 452.825 354.88 453.44L354.325 452.405C356.71 451.955 359.26 449.885 359.26 447.575V446.54ZM359.485 446.54H360.565V447.575C360.565 449.9 363.13 451.955 365.5 452.405L364.945 453.44C362.245 452.825 359.485 450.545 359.485 447.575V446.54ZM353.83 456.32H366.115V457.34H353.83V456.32ZM377.559 445.595H378.789V459.185H377.559V445.595ZM374.739 450.71H377.739V451.745H374.739V450.71ZM368.244 454.895H369.279C371.829 454.895 373.434 454.85 375.339 454.49L375.459 455.51C373.509 455.855 371.859 455.93 369.279 455.93H368.244V454.895ZM368.244 446.84H374.514V447.875H369.474V455.255H368.244V446.84ZM369.159 450.65H373.929V451.655H369.159V450.65ZM391.268 445.61H392.513V459.2H391.268V445.61ZM382.298 454.775H383.393C386.078 454.775 387.818 454.685 389.828 454.31L389.963 455.36C387.893 455.75 386.123 455.825 383.393 455.825H382.298V454.775ZM382.298 446.9H388.703V447.935H383.528V455.165H382.298V446.9ZM405.318 454.115C408.078 454.115 409.773 455.045 409.773 456.635C409.773 458.225 408.078 459.155 405.318 459.155C402.558 459.155 400.863 458.225 400.863 456.635C400.863 455.045 402.558 454.115 405.318 454.115ZM405.318 455.12C403.308 455.12 402.078 455.675 402.078 456.635C402.078 457.61 403.308 458.165 405.318 458.165C407.328 458.165 408.558 457.61 408.558 456.635C408.558 455.675 407.328 455.12 405.318 455.12ZM408.393 445.61H409.638V453.755H408.393V445.61ZM409.293 449.015H411.648V450.065H409.293V449.015ZM399.678 446.465H400.908V448.49H404.733V446.465H405.948V452.72H399.678V446.465ZM400.908 449.48V451.715H404.733V449.48H400.908ZM422.762 445.595H424.007V459.185H422.762V445.595ZM416.852 446.645C418.862 446.645 420.302 448.49 420.302 451.37C420.302 454.265 418.862 456.11 416.852 456.11C414.857 456.11 413.417 454.265 413.417 451.37C413.417 448.49 414.857 446.645 416.852 446.645ZM416.852 447.77C415.532 447.77 414.602 449.18 414.602 451.37C414.602 453.575 415.532 455.015 416.852 455.015C418.187 455.015 419.102 453.575 419.102 451.37C419.102 449.18 418.187 447.77 416.852 447.77ZM432.162 453.56H433.332V455.255H435.702V453.56H436.857V458.99H432.162V453.56ZM433.332 456.185V458.015H435.702V456.185H433.332ZM439.482 453.485H440.442V454.61C440.442 456.455 439.512 458.315 437.637 459.11L437.007 458.165C438.642 457.475 439.482 455.99 439.482 454.61V453.485ZM439.737 453.485H440.697V454.61C440.697 456.065 441.537 457.535 443.172 458.165L442.542 459.11C440.652 458.33 439.737 456.53 439.737 454.61V453.485ZM437.427 448.79H441.072V449.825H437.427V448.79ZM434.307 446.21C436.332 446.21 437.802 447.47 437.802 449.33C437.802 451.175 436.332 452.45 434.307 452.45C432.282 452.45 430.812 451.175 430.812 449.33C430.812 447.47 432.282 446.21 434.307 446.21ZM434.307 447.245C432.972 447.245 432.012 448.1 432.012 449.33C432.012 450.545 432.972 451.415 434.307 451.415C435.642 451.415 436.602 450.545 436.602 449.33C436.602 448.1 435.642 447.245 434.307 447.245ZM440.517 445.61H441.762V452.795H440.517V445.61ZM445.961 453.74H447.191V455.315H453.821V453.74H455.066V458.99H445.961V453.74ZM447.191 456.275V457.985H453.821V456.275H447.191ZM444.401 451.79H456.656V452.795H444.401V451.79ZM449.906 445.76H450.971V446.36C450.971 448.715 448.346 450.41 445.556 450.83L445.106 449.855C447.551 449.525 449.906 448.07 449.906 446.36V445.76ZM450.101 445.76H451.166V446.36C451.166 448.04 453.551 449.525 455.966 449.855L455.501 450.83C452.741 450.41 450.101 448.685 450.101 446.36V445.76ZM468.07 445.61H469.315V459.17H468.07V445.61ZM459.07 446.93H460.3V455.33H459.07V446.93ZM459.07 454.595H460.18C462.235 454.595 464.38 454.445 466.675 453.965L466.825 455.03C464.47 455.51 462.325 455.675 460.18 455.675H459.07V454.595ZM481.179 445.595H482.439V459.185H481.179V445.595ZM482.139 450.95H484.659V452H482.139V450.95ZM472.584 454.76H473.649C476.154 454.76 477.909 454.67 479.934 454.295L480.069 455.345C477.984 455.735 476.199 455.81 473.649 455.81H472.584V454.76ZM472.584 446.915H478.884V447.935H473.814V455.225H472.584V446.915ZM486.083 457.115C486.083 456.725 486.183 456.45 486.383 456.29C486.583 456.13 486.823 456.05 487.103 456.05C487.393 456.05 487.638 456.13 487.838 456.29C488.038 456.45 488.138 456.725 488.138 457.115C488.138 457.505 488.038 457.785 487.838 457.955C487.638 458.125 487.393 458.21 487.103 458.21C486.823 458.21 486.583 458.125 486.383 457.955C486.183 457.785 486.083 457.505 486.083 457.115ZM499.241 446.54H500.321V447.575C500.321 450.53 497.576 452.825 494.861 453.44L494.306 452.405C496.691 451.955 499.241 449.885 499.241 447.575V446.54ZM499.466 446.54H500.546V447.575C500.546 449.9 503.111 451.955 505.481 452.405L504.926 453.44C502.226 452.825 499.466 450.545 499.466 447.575V446.54ZM493.811 456.32H506.096V457.34H493.811V456.32ZM517.539 445.595H518.769V459.185H517.539V445.595ZM514.719 450.71H517.719V451.745H514.719V450.71ZM508.224 454.895H509.259C511.809 454.895 513.414 454.85 515.319 454.49L515.439 455.51C513.489 455.855 511.839 455.93 509.259 455.93H508.224V454.895ZM508.224 446.84H514.494V447.875H509.454V455.255H508.224V446.84ZM509.139 450.65H513.909V451.655H509.139V450.65ZM531.248 445.61H532.493V459.2H531.248V445.61ZM522.278 454.775H523.373C526.058 454.775 527.798 454.685 529.808 454.31L529.943 455.36C527.873 455.75 526.103 455.825 523.373 455.825H522.278V454.775ZM522.278 446.9H528.683V447.935H523.508V455.165H522.278V446.9ZM545.299 454.115C548.059 454.115 549.754 455.045 549.754 456.635C549.754 458.225 548.059 459.155 545.299 459.155C542.539 459.155 540.844 458.225 540.844 456.635C540.844 455.045 542.539 454.115 545.299 454.115ZM545.299 455.12C543.289 455.12 542.059 455.675 542.059 456.635C542.059 457.61 543.289 458.165 545.299 458.165C547.309 458.165 548.539 457.61 548.539 456.635C548.539 455.675 547.309 455.12 545.299 455.12ZM548.374 445.61H549.619V453.755H548.374V445.61ZM549.274 449.015H551.629V450.065H549.274V449.015ZM539.659 446.465H540.889V448.49H544.714V446.465H545.929V452.72H539.659V446.465ZM540.889 449.48V451.715H544.714V449.48H540.889ZM559.022 445.835C562.007 445.835 563.792 446.675 563.792 448.19C563.792 449.705 562.007 450.545 559.022 450.545C556.022 450.545 554.252 449.705 554.252 448.19C554.252 446.675 556.022 445.835 559.022 445.835ZM559.022 446.78C556.802 446.78 555.527 447.29 555.527 448.19C555.527 449.09 556.802 449.6 559.022 449.6C561.227 449.6 562.502 449.09 562.502 448.19C562.502 447.29 561.227 446.78 559.022 446.78ZM552.887 451.445H565.142V452.45H552.887V451.445ZM554.372 453.605H563.582V456.665H555.632V458.315H554.402V455.765H562.352V454.565H554.372V453.605ZM554.402 458.045H563.987V459.02H554.402V458.045ZM580.888 445.61H582.088V459.17H580.888V445.61ZM578.698 451.055H581.293V452.075H578.698V451.055ZM575.188 447.35H576.388C576.388 450.845 575.188 454.085 571.318 456.26L570.583 455.375C573.988 453.47 575.188 450.725 575.188 447.59V447.35ZM571.108 447.35H575.608V448.385H571.108V447.35ZM577.873 445.97H579.058V458.51H577.873V445.97ZM591.356 448.055H594.821V449.09H591.356V448.055ZM594.296 445.61H595.541V452.6H594.296V445.61ZM586.811 453.305H595.541V456.545H588.071V458.6H586.856V455.615H594.311V454.295H586.811V453.305ZM586.856 458H596.051V458.99H586.856V458ZM587.771 446.03H588.791V447.305C588.791 449.81 587.291 451.835 585.026 452.645L584.381 451.655C586.421 450.965 587.771 449.27 587.771 447.305V446.03ZM587.981 446.03H588.986V447.305C588.986 449.075 590.351 450.71 592.316 451.355L591.671 452.33C589.481 451.55 587.981 449.6 587.981 447.305V446.03ZM607.375 445.61H608.62V459.17H607.375V445.61ZM608.32 451.175H610.84V452.225H608.32V451.175ZM598.12 447.77H606.115V448.79H598.12V447.77ZM602.17 449.915C604.09 449.915 605.47 451.205 605.47 453.035C605.47 454.865 604.09 456.155 602.17 456.155C600.265 456.155 598.87 454.865 598.87 453.035C598.87 451.205 600.265 449.915 602.17 449.915ZM602.17 450.95C600.94 450.95 600.055 451.805 600.055 453.035C600.055 454.25 600.94 455.12 602.17 455.12C603.4 455.12 604.285 454.25 604.285 453.035C604.285 451.805 603.4 450.95 602.17 450.95ZM601.525 445.775H602.77V448.235H601.525V445.775ZM618.099 448.625H622.194V449.66H618.099V448.625ZM618.099 452.915H622.194V453.95H618.099V452.915ZM615.609 446.645C617.574 446.645 618.984 448.49 618.984 451.37C618.984 454.265 617.574 456.11 615.609 456.11C613.629 456.11 612.234 454.265 612.234 451.37C612.234 448.49 613.629 446.645 615.609 446.645ZM615.609 447.77C614.304 447.77 613.404 449.18 613.404 451.37C613.404 453.575 614.304 455.015 615.609 455.015C616.914 455.015 617.814 453.575 617.814 451.37C617.814 449.18 616.914 447.77 615.609 447.77ZM621.924 445.595H623.154V459.185H621.924V445.595ZM635.119 446.54H636.199V447.575C636.199 450.53 633.454 452.825 630.739 453.44L630.184 452.405C632.569 451.955 635.119 449.885 635.119 447.575V446.54ZM635.344 446.54H636.424V447.575C636.424 449.9 638.989 451.955 641.359 452.405L640.804 453.44C638.104 452.825 635.344 450.545 635.344 447.575V446.54ZM629.689 456.32H641.974V457.34H629.689V456.32ZM653.418 445.595H654.648V459.185H653.418V445.595ZM650.598 450.71H653.598V451.745H650.598V450.71ZM644.103 454.895H645.138C647.688 454.895 649.293 454.85 651.198 454.49L651.318 455.51C649.368 455.855 647.718 455.93 645.138 455.93H644.103V454.895ZM644.103 446.84H650.373V447.875H645.333V455.255H644.103V446.84ZM645.018 450.65H649.788V451.655H645.018V450.65ZM667.127 445.61H668.372V459.2H667.127V445.61ZM658.157 454.775H659.252C661.937 454.775 663.677 454.685 665.687 454.31L665.822 455.36C663.752 455.75 661.982 455.825 659.252 455.825H658.157V454.775ZM658.157 446.9H664.562V447.935H659.387V455.165H658.157V446.9ZM674.926 452.435H676.171V455.45H674.926V452.435ZM680.941 445.61H682.186V455.93H680.941V445.61ZM672.931 457.85H682.516V458.87H672.931V457.85ZM672.931 454.925H674.176V458.135H672.931V454.925ZM671.176 452.9L671.011 451.88C673.516 451.88 676.876 451.85 679.756 451.475L679.846 452.39C676.921 452.855 673.636 452.9 671.176 452.9ZM678.181 453.62H681.256V454.535H678.181V453.62ZM675.421 446.165C677.401 446.165 678.751 447.095 678.751 448.52C678.751 449.96 677.401 450.89 675.421 450.89C673.426 450.89 672.076 449.96 672.076 448.52C672.076 447.095 673.426 446.165 675.421 446.165ZM675.421 447.095C674.146 447.095 673.261 447.65 673.261 448.52C673.261 449.39 674.146 449.945 675.421 449.945C676.681 449.945 677.566 449.39 677.566 448.52C677.566 447.65 676.681 447.095 675.421 447.095ZM691.005 445.835C693.99 445.835 695.775 446.675 695.775 448.19C695.775 449.705 693.99 450.545 691.005 450.545C688.005 450.545 686.235 449.705 686.235 448.19C686.235 446.675 688.005 445.835 691.005 445.835ZM691.005 446.78C688.785 446.78 687.51 447.29 687.51 448.19C687.51 449.09 688.785 449.6 691.005 449.6C693.21 449.6 694.485 449.09 694.485 448.19C694.485 447.29 693.21 446.78 691.005 446.78ZM684.87 451.445H697.125V452.45H684.87V451.445ZM686.355 453.605H695.565V456.665H687.615V458.315H686.385V455.765H694.335V454.565H686.355V453.605ZM686.385 458.045H695.97V459.02H686.385V458.045ZM702.58 456.41H714.865V457.445H702.58V456.41ZM708.07 452.9H709.315V456.695H708.07V452.9ZM704.005 446.735H713.365V453.125H704.005V446.735ZM712.165 447.74H705.22V452.12H712.165V447.74ZM719.979 446.78H721.014V447.815C721.014 450.2 719.454 452.21 717.174 452.99L716.544 452C718.584 451.34 719.979 449.66 719.979 447.815V446.78ZM720.219 446.78H721.254V447.815C721.254 449.57 722.679 451.145 724.674 451.775L724.059 452.75C721.809 452.015 720.219 450.11 720.219 447.815V446.78ZM716.889 446.495H724.314V447.5H716.889V446.495ZM726.234 445.61H727.494V452.945H726.234V445.61ZM718.749 453.62H719.979V455.225H726.264V453.62H727.494V458.99H718.749V453.62ZM719.979 456.23V457.97H726.264V456.23H719.979ZM730.148 447.92H736.868V448.94H730.148V447.92ZM733.508 449.84C735.203 449.84 736.433 451.115 736.433 452.945C736.433 454.76 735.203 456.035 733.508 456.035C731.828 456.035 730.598 454.76 730.598 452.945C730.598 451.115 731.828 449.84 733.508 449.84ZM733.508 450.905C732.473 450.905 731.723 451.745 731.723 452.945C731.723 454.145 732.473 454.985 733.508 454.985C734.558 454.985 735.323 454.145 735.323 452.945C735.323 451.745 734.558 450.905 733.508 450.905ZM740.453 445.61H741.653V459.17H740.453V445.61ZM738.293 451.31H740.858V452.345H738.293V451.31ZM737.558 445.91H738.728V458.51H737.558V445.91ZM732.908 446H734.138V448.55H732.908V446ZM743.977 456.41H756.262V457.445H743.977V456.41ZM749.467 453.17H750.712V456.71H749.467V453.17ZM745.417 446.57H746.647V448.985H753.562V446.57H754.792V453.5H745.417V446.57ZM746.647 449.99V452.48H753.562V449.99H746.647ZM763.115 450.455H765.71V451.49H763.115V450.455ZM760.58 446.885H761.555V449.465C761.555 452.3 760.37 455.045 758.39 456.26L757.61 455.315C759.47 454.22 760.58 451.79 760.58 449.465V446.885ZM760.82 446.885H761.78V449.42C761.78 451.595 762.8 453.905 764.585 454.985L763.865 455.96C761.915 454.76 760.82 452.06 760.82 449.42V446.885ZM768.095 445.61H769.295V459.17H768.095V445.61ZM765.35 445.895H766.52V458.495H765.35V445.895ZM774.574 452.585H775.804V456.65H774.574V452.585ZM779.584 452.585H780.829V456.65H779.584V452.585ZM771.574 456.41H783.859V457.445H771.574V456.41ZM777.694 446.465C780.559 446.465 782.614 447.83 782.614 449.96C782.614 452.075 780.559 453.44 777.694 453.44C774.814 453.44 772.759 452.075 772.759 449.96C772.759 447.83 774.814 446.465 777.694 446.465ZM777.694 447.455C775.519 447.455 773.959 448.445 773.959 449.96C773.959 451.46 775.519 452.45 777.694 452.45C779.869 452.45 781.414 451.46 781.414 449.96C781.414 448.445 779.869 447.455 777.694 447.455ZM785.643 457.115C785.643 456.725 785.743 456.45 785.943 456.29C786.143 456.13 786.383 456.05 786.663 456.05C786.953 456.05 787.198 456.13 787.398 456.29C787.598 456.45 787.698 456.725 787.698 457.115C787.698 457.505 787.598 457.785 787.398 457.955C787.198 458.125 786.953 458.21 786.663 458.21C786.383 458.21 786.143 458.125 785.943 457.955C785.743 457.785 785.643 457.505 785.643 457.115Z" fill="#424242"/>
<defs>
<linearGradient id="paint0_linear_387_416" x1="535.762" y1="263.281" x2="535.762" y2="160.339" gradientUnits="userSpaceOnUse">
<stop stop-color="white" stop-opacity="0"/>
<stop offset="0.12" stop-color="#EAEAEB" stop-opacity="0.2"/>
<stop offset="0.32" stop-color="#CCCDCF" stop-opacity="0.48"/>
<stop offset="0.52" stop-color="#B5B6B8" stop-opacity="0.71"/>
<stop offset="0.7" stop-color="#A4A6A8" stop-opacity="0.87"/>
<stop offset="0.87" stop-color="#9A9C9F" stop-opacity="0.97"/>
<stop offset="1" stop-color="#97999C"/>
</linearGradient>
<linearGradient id="paint1_linear_387_416" x1="510.632" y1="373.779" x2="510.632" y2="339.167" gradientUnits="userSpaceOnUse">
<stop stop-color="white" stop-opacity="0"/>
<stop offset="1" stop-color="#7A7B7F"/>
</linearGradient>
</defs>
</svg>
