<svg width="24" height="24" viewBox="0 0 24 24" fill="none" xmlns="http://www.w3.org/2000/svg">
<g opacity="0.3">
<path d="M23.2812 11.6898H21.8438V10.1991C21.8438 9.75185 21.5562 9.4537 21.125 9.4537H19.6875V7.96296C19.6875 7.51574 19.4 7.21759 18.9688 7.21759H17.5312V5.72685H18.9688C19.4 5.72685 19.6875 5.4287 19.6875 4.98148V2.74537C19.6875 2.29815 19.4 2 18.9688 2H16.8125C16.3813 2 16.0938 2.29815 16.0938 2.74537V4.23611H14.6562C14.225 4.23611 13.9375 4.53426 13.9375 4.98148V7.21759H11.0625V4.98148C11.0625 4.53426 10.775 4.23611 10.3438 4.23611H8.90625V2.74537C8.90625 2.29815 8.61875 2 8.1875 2H6.03125C5.6 2 5.3125 2.29815 5.3125 2.74537V4.98148C5.3125 5.4287 5.6 5.72685 6.03125 5.72685H7.46875V7.21759H6.03125C5.6 7.21759 5.3125 7.51574 5.3125 7.96296V9.4537H3.875C3.44375 9.4537 3.15625 9.75185 3.15625 10.1991V11.6898H1.71875C1.2875 11.6898 1 11.988 1 12.4352V19.1435C1 19.5907 1.2875 19.8889 1.71875 19.8889H3.875C4.30625 19.8889 4.59375 19.5907 4.59375 19.1435V15.4167H5.3125V19.1435C5.3125 19.5907 5.6 19.8889 6.03125 19.8889H7.46875V21.3796C7.46875 21.8269 7.75625 22.125 8.1875 22.125H11.0625C11.4937 22.125 11.7812 21.8269 11.7812 21.3796V19.1435C11.7812 18.6963 11.4937 18.3981 11.0625 18.3981H8.90625V17.6528H16.0938V18.3981H13.9375C13.5063 18.3981 13.2188 18.6963 13.2188 19.1435V21.3796C13.2188 21.8269 13.5063 22.125 13.9375 22.125H16.8125C17.2437 22.125 17.5312 21.8269 17.5312 21.3796V19.8889H18.9688C19.4 19.8889 19.6875 19.5907 19.6875 19.1435V15.4167H20.4062V19.1435C20.4062 19.5907 20.6938 19.8889 21.125 19.8889H23.2812C23.7125 19.8889 24 19.5907 24 19.1435V12.4352C24 11.988 23.7125 11.6898 23.2812 11.6898ZM11.0625 13.9259C11.0625 14.3731 10.775 14.6713 10.3438 14.6713H8.1875C7.75625 14.6713 7.46875 14.3731 7.46875 13.9259V11.6898C7.46875 11.2426 7.75625 10.9444 8.1875 10.9444H10.3438C10.775 10.9444 11.0625 11.2426 11.0625 11.6898V13.9259ZM17.5312 13.9259C17.5312 14.3731 17.2437 14.6713 16.8125 14.6713H14.6562C14.225 14.6713 13.9375 14.3731 13.9375 13.9259V11.6898C13.9375 11.2426 14.225 10.9444 14.6562 10.9444H16.8125C17.2437 10.9444 17.5312 11.2426 17.5312 11.6898V13.9259Z" fill="white"/>
</g>
</svg>
