<svg width="48" height="48" viewBox="0 0 48 48" fill="none" xmlns="http://www.w3.org/2000/svg">
<circle cx="24" cy="24" r="20" fill="#90B54C"/>
<path fill-rule="evenodd" clip-rule="evenodd" d="M0.666626 24C0.666626 11.1133 11.1133 0.666626 24 0.666626C36.8865 0.666626 47.3333 11.1133 47.3333 24C47.3333 36.8865 36.8865 47.3333 24 47.3333C11.1133 47.3333 0.666626 36.8865 0.666626 24ZM23.9997 9.99996C18.8451 9.99996 14.6664 14.1786 14.6664 19.3333C14.6664 24.4879 18.8451 28.6666 23.9997 28.6666C29.1543 28.6666 33.3331 24.4879 33.3331 19.3333C33.3331 14.1786 29.1543 9.99996 23.9997 9.99996ZM35.9268 33.3272C37.695 34.4659 37.6087 36.9479 35.9984 38.3005C32.7539 41.0254 28.5689 42.6666 24.0002 42.6666C19.4619 42.6666 15.3016 41.0471 12.0663 38.3542C10.4417 37.002 10.3556 34.5074 12.1315 33.3613C12.6843 33.0045 13.2864 32.6919 13.9398 32.4226C16.5687 31.3388 19.9264 31 24 31C28.094 31 31.4708 31.3171 34.1066 32.3892C34.765 32.6571 35.3712 32.9695 35.9268 33.3272Z" fill="#f5f5f5"/>
</svg>
