<svg width="24" height="24" viewBox="0 0 24 24" fill="none" xmlns="http://www.w3.org/2000/svg">
<g opacity="0.3">
<path d="M21.0647 5.68509L13.7571 1.41599C13.2895 1.1435 12.7586 1 12.218 1C11.6775 1 11.1466 1.1435 10.679 1.41599L3.37188 5.68509C3.3431 5.70207 3.31924 5.72632 3.30265 5.75543C3.28607 5.78454 3.27734 5.8175 3.27734 5.85105C3.27734 5.88459 3.28607 5.91756 3.30265 5.94667C3.31924 5.97578 3.3431 6.00002 3.37188 6.017L12.1226 11.1919C12.152 11.2093 12.1856 11.2185 12.2197 11.2185C12.2539 11.2185 12.2874 11.2093 12.3168 11.1919L21.0656 6.017C21.0944 5.99994 21.1182 5.97563 21.1347 5.94647C21.1512 5.91731 21.1598 5.88432 21.1597 5.85077C21.1596 5.81722 21.1508 5.78429 21.1341 5.75522C21.1174 5.72616 21.0935 5.70198 21.0647 5.68509ZM12.2183 6.77365C11.5843 6.77365 11.0699 6.42924 11.0699 6.00401C11.0699 5.57879 11.5843 5.23437 12.2183 5.23437C12.8523 5.23437 13.3667 5.57879 13.3667 6.00401C13.3667 6.42924 12.8523 6.77365 12.2183 6.77365Z" fill="white"/>
<path d="M11.48 12.6009L2.29937 7.41238C2.26904 7.39542 2.23465 7.38648 2.19963 7.38647C2.16461 7.38647 2.13021 7.39538 2.09988 7.41233C2.06954 7.42928 2.04435 7.45366 2.02682 7.48303C2.00928 7.5124 2.00004 7.54572 2 7.57964V15.9872C2.00075 16.3923 2.11095 16.7901 2.31963 17.1412C2.52832 17.4922 2.82821 17.7842 3.1895 17.9881L11.2805 22.6883C11.3108 22.7053 11.3452 22.7142 11.3802 22.7142C11.4152 22.7142 11.4496 22.7053 11.48 22.6883C11.5103 22.6714 11.5355 22.647 11.553 22.6177C11.5705 22.5883 11.5798 22.555 11.5798 22.521V12.7681C11.5798 12.7342 11.5706 12.7009 11.553 12.6716C11.5355 12.6422 11.5104 12.6178 11.48 12.6009ZM4.39496 17.2992C3.95389 17.2992 3.59664 16.7795 3.59664 16.139C3.59664 15.4985 3.95389 14.9788 4.39496 14.9788C4.83603 14.9788 5.19328 15.4985 5.19328 16.139C5.19328 16.7795 4.83603 17.2992 4.39496 17.2992ZM9.18487 15.7523C8.7438 15.7523 8.38655 15.2326 8.38655 14.5921C8.38655 13.9515 8.7438 13.4319 9.18487 13.4319C9.62595 13.4319 9.98319 13.9515 9.98319 14.5921C9.98319 15.2326 9.62595 15.7523 9.18487 15.7523Z" fill="white"/>
<path d="M22.1374 7.41239L12.9567 12.6365C12.9265 12.6534 12.9014 12.6777 12.8838 12.707C12.8663 12.7363 12.8571 12.7695 12.8569 12.8033V22.521C12.857 22.5549 12.8662 22.5883 12.8837 22.6176C12.9013 22.647 12.9265 22.6714 12.9568 22.6883C12.9871 22.7053 13.0215 22.7142 13.0566 22.7142C13.0916 22.7142 13.126 22.7053 13.1563 22.6883L21.2468 17.9873C21.608 17.7835 21.9079 17.4917 22.1167 17.1408C22.3254 16.7899 22.4358 16.3921 22.4368 15.9871V7.58113C22.437 7.54707 22.4279 7.51356 22.4105 7.48399C22.3931 7.45441 22.3679 7.42982 22.3375 7.4127C22.3072 7.39558 22.2726 7.38653 22.2375 7.38647C22.2024 7.38642 22.1678 7.39536 22.1374 7.41239ZM15.2519 20.0069C14.8108 20.0069 14.4536 19.4871 14.4536 18.8465C14.4536 18.2058 14.8108 17.6861 15.2519 17.6861C15.693 17.6861 16.0502 18.2058 16.0502 18.8465C16.0502 19.4871 15.693 20.0069 15.2519 20.0069ZM15.2519 15.7521C14.8108 15.7521 14.4536 15.2324 14.4536 14.5917C14.4536 13.9511 14.8108 13.4314 15.2519 13.4314C15.693 13.4314 16.0502 13.9511 16.0502 14.5917C16.0502 15.2324 15.693 15.7521 15.2519 15.7521ZM20.0418 17.2993C19.6007 17.2993 19.2435 16.7795 19.2435 16.1389C19.2435 15.4983 19.6007 14.9785 20.0418 14.9785C20.4829 14.9785 20.8401 15.4983 20.8401 16.1389C20.8401 16.7795 20.4829 17.2993 20.0418 17.2993ZM20.0418 13.0446C19.6007 13.0446 19.2435 12.5248 19.2435 11.8842C19.2435 11.2436 19.6007 10.7238 20.0418 10.7238C20.4829 10.7238 20.8401 11.2436 20.8401 11.8842C20.8401 12.5248 20.4829 13.0446 20.0418 13.0446Z" fill="white"/>
</g>
</svg>
