<svg width="36" height="36" viewBox="0 0 36 36" fill="none" xmlns="http://www.w3.org/2000/svg">
<rect width="36" height="36" rx="18" fill="#424242"/>
<path fill-rule="evenodd" clip-rule="evenodd" d="M9.98998 22.854L8.67598 26.358C8.62552 26.4928 8.61495 26.6393 8.64552 26.78C8.67608 26.9207 8.7465 27.0496 8.84836 27.1514C8.95022 27.2532 9.07922 27.3234 9.21995 27.3539C9.36068 27.3843 9.50719 27.3736 9.64198 27.323L13.145 26.009C13.5459 25.8588 13.9101 25.6245 14.213 25.322L24.36 15.175C24.36 15.175 24.006 14.114 22.946 13.053C21.886 11.993 20.824 11.639 20.824 11.639L10.677 21.786C10.3744 22.0889 10.1401 22.453 9.98998 22.854ZM22.239 10.224L23.622 8.84096C23.87 8.59296 24.201 8.43496 24.547 8.49296C25.034 8.57296 25.779 8.81496 26.481 9.51796C27.184 10.221 27.426 10.965 27.506 11.452C27.564 11.798 27.406 12.129 27.158 12.377L25.774 13.76C25.774 13.76 25.421 12.7 24.36 11.64C23.3 10.578 22.239 10.224 22.239 10.224Z" fill="white"/>
</svg>
