<svg width="24" height="24" viewBox="0 0 24 24" fill="none" xmlns="http://www.w3.org/2000/svg">
<g opacity="0.3">
<path d="M7.43996 5.85332H14.499C14.8552 5.85332 15.1466 5.56189 15.1466 5.2057V3.91047C15.1466 2.8419 14.2723 2 13.2361 2H8.73519C7.66663 2 6.82473 2.87428 6.82473 3.91047V5.2057C6.79235 5.56189 7.08377 5.85332 7.43996 5.85332Z" fill="white"/>
<path d="M18.0285 3.58667H17.3809C17.1866 3.58667 17.0571 3.71619 17.0571 3.91048V5.20571C17.0571 6.63047 15.8914 7.76379 14.499 7.76379H7.43997C6.01522 7.76379 4.88189 6.59808 4.88189 5.20571V3.91048C4.88189 3.71619 4.75237 3.58667 4.55808 3.58667H3.91047C2.8419 3.58667 2 4.46095 2 5.49714V18.6437C2 19.7123 2.87428 20.5542 3.91047 20.5542H10.3866C11.2933 20.5542 11.3904 19.8095 11.3904 19.5504V12.6209C11.3904 11.8762 11.8114 11.7143 12.038 11.7143H19.0323C19.8094 11.7143 19.939 11.0343 19.939 10.8076V5.5619C19.9713 4.46095 19.0971 3.58667 18.0285 3.58667Z" fill="white"/>
<path d="M20.7487 15.082H13.6897C13.4954 15.082 13.3335 14.9201 13.3335 14.7258V14.0134C13.3335 13.8191 13.4954 13.6572 13.6897 13.6572H20.7487C20.943 13.6572 21.1049 13.8191 21.1049 14.0134V14.7258C21.1049 14.9201 20.943 15.082 20.7487 15.082ZM20.7487 18.2553H13.6897C13.4954 18.2553 13.3335 18.0934 13.3335 17.8991V17.1867C13.3335 16.9924 13.4954 16.8305 13.6897 16.8305H20.7487C20.943 16.8305 21.1049 16.9924 21.1049 17.1867V17.8991C21.1049 18.0934 20.943 18.2553 20.7487 18.2553ZM20.7487 21.4286H13.6897C13.4954 21.4286 13.3335 21.2667 13.3335 21.0724V20.3601C13.3335 20.1658 13.4954 20.0039 13.6897 20.0039H20.7487C20.943 20.0039 21.1049 20.1658 21.1049 20.3601V21.0724C21.1049 21.2667 20.943 21.4286 20.7487 21.4286Z" fill="white"/>
</g>
</svg>
