<svg width="11" height="14" viewBox="0 0 11 14" fill="none" xmlns="http://www.w3.org/2000/svg">
<path fill-rule="evenodd" clip-rule="evenodd" d="M2.18994 8V12H8.18994V8H2.18994ZM1.18994 6C0.637657 6 0.189941 6.44772 0.189941 7V13C0.189941 13.5523 0.637657 14 1.18994 14H9.18994C9.74223 14 10.1899 13.5523 10.1899 13V7C10.1899 6.44772 9.74223 6 9.18994 6H1.18994Z" fill="#424242"/>
<path fill-rule="evenodd" clip-rule="evenodd" d="M1.18994 4C1.18994 1.79086 2.9808 0 5.18994 0C7.39908 0 9.18994 1.79086 9.18994 4V6H7.18994V4C7.18994 2.89543 6.29451 2 5.18994 2C4.08537 2 3.18994 2.89543 3.18994 4V6H1.18994V4Z" fill="#424242"/>
</svg>
