<svg width="32" height="33" viewBox="0 0 32 33" fill="none" xmlns="http://www.w3.org/2000/svg">
<path d="M7.13935 18.0778C6.97893 17.9045 7.03479 17.7341 7.38428 17.7728C7.73377 17.8114 8.19068 17.9146 8.41986 17.9876C11.4005 18.9301 12.2929 22.1227 12.5707 23.0022C12.6896 23.3775 13.6651 25.7737 14.0217 27.6773C14.407 29.7255 14.175 31.3011 14.2666 32.0832L14.1707 32.0058C11.7056 29.9948 10.3664 26.7048 9.4984 23.4877C8.75645 20.742 9.56859 20.7004 7.13792 18.0778H7.13935Z" fill="#AEC18B"/>
<path d="M15.5682 14.6646C15.5682 14.1876 15.1815 13.8009 14.7045 13.8009C14.2275 13.8009 13.8408 14.1876 13.8408 14.6646V31.1593C13.8408 31.6363 14.2275 32.023 14.7045 32.023C15.1815 32.023 15.5682 31.6363 15.5682 31.1593V14.6646Z" fill="#688237"/>
<path d="M20.1798 27.9309C18.1674 30.3487 15.9272 32.0832 14.3374 32.0846C14.1726 32.0846 14.0394 31.9328 14.0738 31.7796C14.6897 28.9937 16.5245 25.7666 18.6071 23.2658C20.6052 20.8652 21.9015 20.2522 24.2219 19.3512C24.4224 19.2739 24.7246 19.5403 24.5599 19.6735C24.0156 20.1161 23.3768 20.9139 23.1104 21.5599C22.0762 24.065 21.8141 25.9686 20.1813 27.9323L20.1798 27.9309Z" fill="#2B3616"/>
<path d="M15.7683 0.673617C15.7683 0.673617 17.1147 -1.01224 18.325 0.950057C19.5368 2.91235 20.2329 7.37406 19.7531 8.6875C19.2733 10.0009 18.4382 13.9843 17.0245 15.9709C15.6108 17.9561 15.2241 18.1022 14.8216 16.4464C14.4191 14.7907 12.6817 5.72401 15.7683 0.673617Z" fill="#AEC18B"/>
<path d="M13.9868 16.4464C13.9868 16.4464 12.6047 9.88346 9.81161 7.28092C7.01713 4.67981 5.60199 4.33605 5.28258 4.8789C4.96317 5.42175 4.80275 6.1193 5.42008 7.38118C6.03742 8.64163 10.0494 14.3394 12.6204 15.9121L13.9883 16.4464H13.9868Z" fill="#90B54C"/>
<path d="M16.8152 7.43849C16.8152 6.27169 15.8693 5.32581 14.7025 5.32581C13.5357 5.32581 12.5898 6.27169 12.5898 7.43849V15.3636C12.5898 16.5304 13.5357 17.4763 14.7025 17.4763C15.8693 17.4763 16.8152 16.5304 16.8152 15.3636V7.43849Z" fill="white"/>
<path d="M15.2959 17.2671C15.2959 17.2671 15.293 18.3414 15.8703 17.9461C15.8703 17.9461 16.84 16.3433 17.1465 15.8291C17.453 15.3149 20.2088 11.3172 21.2587 10.4851C22.3072 9.65287 25.3895 6.83691 25.3838 6.8498C25.3781 6.8627 25.7276 6.54758 25.3236 6.60774C24.9197 6.6679 21.1155 6.79824 19.5814 9.34492C18.0474 11.8916 15.8115 15.7374 15.5881 16.3762C15.3647 17.0151 15.2988 17.2686 15.2988 17.2686L15.2959 17.2671Z" fill="#90B54C"/>
<path d="M9.24329 10.3103C9.24329 10.3103 14.2192 9.46523 16.0111 10.9362C16.17 11.0666 16.2703 11.2542 16.2961 11.459C16.4236 12.4731 16.8089 15.9838 16.2631 17.4304C16.2631 17.4304 15.7962 18.3972 15.0399 18.3944C15.0399 18.3944 14.0588 18.6679 13.5102 17.916C12.9616 17.164 8.60304 11.0866 8.8981 10.6283C9.07141 10.359 9.24329 10.3089 9.24329 10.3089V10.3103Z" fill="#2B3616"/>
</svg>
