<svg width="19" height="30" viewBox="0 0 19 30" fill="none" xmlns="http://www.w3.org/2000/svg">
<path d="M1.95424 16.9039C1.80764 16.7418 1.85869 16.5824 2.17808 16.6186C2.49748 16.6547 2.91504 16.7512 3.12448 16.8195C5.8485 17.7008 6.664 20.6862 6.91794 21.5085C7.02659 21.8594 7.91801 24.1002 8.24395 25.8802C8.59607 27.7954 8.38401 29.2687 8.46779 30L8.38009 29.9277C6.12731 28.0472 4.9034 24.9707 4.11015 21.9626C3.4321 19.395 4.17429 19.3562 1.95294 16.9039H1.95424Z" fill="black"/>
<path d="M9.65775 13.7123C9.65775 13.2662 9.30435 12.9047 8.86842 12.9047C8.43249 12.9047 8.0791 13.2662 8.0791 13.7123V29.1362C8.0791 29.5822 8.43249 29.9438 8.86842 29.9438C9.30435 29.9438 9.65775 29.5822 9.65775 29.1362V13.7123Z" fill="black"/>
<path d="M13.8733 26.1173C12.0342 28.3781 9.9869 30 8.53392 30.0014C8.38338 30.0014 8.26165 29.8594 8.29306 29.7161C8.85593 27.1111 10.5327 24.0935 12.436 21.755C14.2621 19.5103 15.4467 18.937 17.5673 18.0946C17.7505 18.0223 18.0267 18.2714 17.8762 18.3959C17.3788 18.8098 16.795 19.5558 16.5515 20.1599C15.6064 22.5024 15.3669 24.2824 13.8746 26.1186L13.8733 26.1173Z" fill="black"/>
<path d="M9.84108 0.629521C9.84108 0.629521 11.0715 -0.946889 12.1776 0.888014C13.285 2.72292 13.9212 6.89498 13.4827 8.12316C13.0442 9.35134 12.281 13.0761 10.9891 14.9337C9.69709 16.7901 9.34367 16.9267 8.97584 15.3784C8.60801 13.8301 7.02021 5.35205 9.84108 0.629521Z" fill="black"/>
<path d="M8.21299 15.3783C8.21299 15.3783 6.94981 9.24146 4.39728 6.80787C1.84344 4.37562 0.550152 4.05418 0.258247 4.56179C-0.0336586 5.0694 -0.180266 5.72166 0.38391 6.90162C0.948085 8.08025 4.61457 13.4082 6.96421 14.8788L8.2143 15.3783H8.21299Z" fill="black"/>
<path d="M10.798 6.95527C10.798 5.86421 9.93362 4.97974 8.86729 4.97974C7.80095 4.97974 6.93652 5.86421 6.93652 6.95527V14.3659C6.93652 15.4569 7.80095 16.3414 8.86729 16.3414C9.93362 16.3414 10.798 15.4569 10.798 14.3659V6.95527Z" fill="black"/>
<path d="M9.40918 16.1458C9.40918 16.1458 9.40656 17.1503 9.93409 16.7807C9.93409 16.7807 10.8203 15.2819 11.1004 14.8011C11.3805 14.3203 13.899 10.5822 14.8585 9.80402C15.8167 9.02586 18.6336 6.39271 18.6284 6.40476C18.6232 6.41681 18.9426 6.12216 18.5734 6.17841C18.2043 6.23466 14.7276 6.35654 13.3257 8.7379C11.9238 11.1193 9.88042 14.7154 9.67621 15.3127C9.47201 15.9101 9.4118 16.1472 9.4118 16.1472L9.40918 16.1458Z" fill="black"/>
<path d="M3.87738 9.64069C3.87738 9.64069 8.42481 8.85047 10.0624 10.226C10.2077 10.3479 10.2993 10.5233 10.3229 10.7148C10.4394 11.6631 10.7915 14.9458 10.2927 16.2986C10.2927 16.2986 9.86601 17.2026 9.17487 17.2C9.17487 17.2 8.27821 17.4558 7.77686 16.7526C7.27552 16.0495 3.29226 10.3666 3.56191 9.93802C3.7203 9.68623 3.87738 9.63935 3.87738 9.63935V9.64069Z" fill="black"/>
</svg>
