<svg width="25" height="20" viewBox="0 0 25 20" fill="none" xmlns="http://www.w3.org/2000/svg">
<path d="M24.908 1.41817C24.9006 1.37141 24.8932 1.32469 24.8858 1.27434C24.8858 1.27074 24.8858 1.26354 24.8858 1.25994C24.8784 1.21678 24.871 1.17363 24.8637 1.13047C24.8637 1.11968 24.8637 1.10886 24.86 1.10167C24.8526 1.06211 24.8452 1.02616 24.8378 0.986597C24.8378 0.972211 24.8304 0.954226 24.8267 0.93984C24.8193 0.90747 24.8119 0.875094 24.8045 0.842725C24.8008 0.821146 24.7934 0.799591 24.7898 0.778011C24.7898 0.763625 24.7824 0.749244 24.7824 0.738454C24.775 0.713278 24.7713 0.688072 24.7639 0.662896C21.6204 -0.664241 18.2848 0.109037 15.9355 2.02601C13.6748 3.87465 13.4162 5.89233 13.0579 9.79821C13.0505 9.79821 13.0432 9.79822 13.0321 9.80541C12.0606 6.02901 11.4732 4.08325 8.95031 2.60866C6.32025 1.07292 2.90342 0.817561 0.0110925 2.60866C0.0110925 2.63383 0.0110889 2.659 0.00739501 2.68777C0.00739501 2.70216 0.00739501 2.71654 0.00739501 2.73093C0.00739501 2.75251 0.00739141 2.77411 0.00369751 2.79569C0.00369751 2.82805 0.0036939 2.86043 0 2.8928C0 2.90719 0 2.92517 0 2.93956C0 2.97912 0 3.01866 0 3.05463C0 3.06542 0 3.0726 0 3.08339C0 3.12654 0 3.1697 0 3.21646C0 3.22005 0 3.22726 0 3.23086C0 3.27761 0 3.32797 0 3.37473C0.0517146 6.36708 1.8137 8.87749 4.24059 10.2945C6.78199 11.7799 8.85058 11.3303 12.7883 10.3773C12.7883 10.3844 12.7883 10.3917 12.7883 10.3989C12.9545 14.5025 13.7339 19.009 14.8384 19.8974C14.9862 20.0161 15.9466 20.0808 16.1793 19.8111C16.3603 19.6025 16.593 19.0306 16.3566 18.8005C15.4183 17.8833 13.8152 13.625 13.793 10.3197C17.594 10.6362 19.6442 10.701 21.8457 8.90267C24.014 7.13315 25.3512 4.38535 24.919 1.42177L24.908 1.41817Z" fill="black"/>
</svg>
