<svg width="32" height="32" viewBox="0 0 32 32" fill="none" xmlns="http://www.w3.org/2000/svg">
<g clip-path="url(#clip0_310_275)">
<path fill-rule="evenodd" clip-rule="evenodd" d="M16 5.15739e-05C14.44 5.15739e-05 12.924 0.580052 11.792 1.64205C11.2297 2.16305 10.7805 2.79406 10.4722 3.49591C10.1639 4.19777 10.0032 4.95549 10 5.72205V16.2801C10 17.8301 10.656 19.2941 11.792 20.3601C12.924 21.4201 14.438 22.0021 16 22.0021C17.56 22.0021 19.076 21.4221 20.208 20.3601C20.7706 19.8388 21.2199 19.2075 21.5282 18.5053C21.8365 17.8031 21.9971 17.045 22 16.2781V5.72005C22 4.17005 21.342 2.70605 20.208 1.64005C19.0639 0.579847 17.5598 -0.00633065 16 5.15739e-05ZM13.844 3.83005C14.4319 3.29084 15.2023 2.99428 16 3.00005C16.826 3.00005 17.6 3.30805 18.156 3.83005C18.708 4.35005 19 5.03205 19 5.72205V16.2801C19 16.9701 18.708 17.6521 18.156 18.1721C17.5678 18.7105 16.7975 19.0064 16 19.0001C15.174 19.0001 14.4 18.6921 13.844 18.1701C13.292 17.6501 13 16.9681 13 16.2781V5.72005C13 5.03005 13.292 4.35005 13.844 3.83005Z" fill="white"/>
<path d="M8 13.5C8 13.1022 7.84196 12.7206 7.56066 12.4393C7.27936 12.158 6.89782 12 6.5 12C6.10218 12 5.72064 12.158 5.43934 12.4393C5.15804 12.7206 5 13.1022 5 13.5V16.27C5.00326 17.6894 5.29155 19.0936 5.84777 20.3995C6.40399 21.7054 7.2168 22.8862 8.238 23.872C9.94726 25.5258 12.1423 26.5872 14.5 26.9V29H11C10.6022 29 10.2206 29.158 9.93934 29.4393C9.65804 29.7206 9.5 30.1022 9.5 30.5C9.5 30.8978 9.65804 31.2794 9.93934 31.5607C10.2206 31.842 10.6022 32 11 32H21C21.3978 32 21.7794 31.842 22.0607 31.5607C22.342 31.2794 22.5 30.8978 22.5 30.5C22.5 30.1022 22.342 29.7206 22.0607 29.4393C21.7794 29.158 21.3978 29 21 29H17.5V26.9C19.8577 26.5872 22.0527 25.5258 23.762 23.872C24.7832 22.8862 25.596 21.7054 26.1522 20.3995C26.7084 19.0936 26.9967 17.6894 27 16.27V13.5C27 13.1022 26.842 12.7206 26.5607 12.4393C26.2794 12.158 25.8978 12 25.5 12C25.1022 12 24.7206 12.158 24.4393 12.4393C24.158 12.7206 24 13.1022 24 13.5V16.27C23.9968 17.288 23.789 18.2951 23.3891 19.2313C22.9892 20.1675 22.4053 21.0138 21.672 21.72C20.1492 23.1879 18.115 24.0056 16 24C13.885 24.0056 11.8508 23.1879 10.328 21.72C9.59472 21.0138 9.01079 20.1675 8.61088 19.2313C8.21097 18.2951 8.00324 17.288 8 16.27V13.5Z" fill="white"/>
</g>
<defs>
<clipPath id="clip0_310_275">
<rect width="32" height="32" fill="white"/>
</clipPath>
</defs>
</svg>
