<svg width="32" height="32" viewBox="0 0 32 32" fill="none" xmlns="http://www.w3.org/2000/svg">
<g clip-path="url(#clip0_461_420)">
<path d="M15.9999 4.31493e-05C14.4399 4.31493e-05 12.9239 0.580043 11.7919 1.64204C11.2707 2.13015 10.8454 2.71149 10.5379 3.35604C10.3808 3.71318 10.369 4.11749 10.505 4.48319C10.6411 4.84889 10.9143 5.14718 11.2666 5.31477C11.619 5.48236 12.0228 5.50606 12.3923 5.38083C12.7618 5.25561 13.068 4.99132 13.2459 4.64404C13.3859 4.35004 13.5859 4.07204 13.8459 3.83004C14.4334 3.2913 15.2029 2.99478 15.9999 3.00004C16.8259 3.00004 17.5999 3.30804 18.1559 3.83004C18.7079 4.35004 18.9999 5.03204 18.9999 5.72204V12.608C18.9999 13.0059 19.158 13.3874 19.4393 13.6687C19.7206 13.95 20.1021 14.108 20.4999 14.108C20.8978 14.108 21.2793 13.95 21.5606 13.6687C21.8419 13.3874 21.9999 13.0059 21.9999 12.608V5.72204C21.9999 4.17204 21.3419 2.70804 20.2079 1.64204C19.0641 0.58111 17.56 -0.00579559 15.9999 4.31493e-05Z" fill="#EA4335"/>
<path fill-rule="evenodd" clip-rule="evenodd" d="M9.99994 12.1202L2.43994 4.56018C2.17498 4.27583 2.03073 3.89974 2.03759 3.51114C2.04444 3.12253 2.20187 2.75176 2.47669 2.47694C2.75152 2.20211 3.12229 2.04469 3.51089 2.03783C3.89949 2.03097 4.27559 2.17522 4.55994 2.44018L29.5599 27.4402C29.7073 27.5775 29.8255 27.7431 29.9075 27.9271C29.9895 28.1111 30.0336 28.3097 30.0371 28.5111C30.0407 28.7125 30.0036 28.9126 29.9282 29.0994C29.8527 29.2862 29.7405 29.4558 29.598 29.5983C29.4556 29.7407 29.2859 29.853 29.0991 29.9284C28.9124 30.0039 28.7123 30.0409 28.5109 30.0374C28.3095 30.0338 28.1109 29.9897 27.9269 29.9077C27.7429 29.8258 27.5773 29.7076 27.4399 29.5602L22.6759 24.8002C21.1567 25.928 19.3755 26.6507 17.4999 26.9002V29.0002H20.9999C21.3978 29.0002 21.7793 29.1582 22.0606 29.4395C22.3419 29.7208 22.4999 30.1024 22.4999 30.5002C22.4999 30.898 22.3419 31.2795 22.0606 31.5608C21.7793 31.8421 21.3978 32.0002 20.9999 32.0002H10.9999C10.6021 32.0002 10.2206 31.8421 9.93928 31.5608C9.65797 31.2795 9.49994 30.898 9.49994 30.5002C9.49994 30.1024 9.65797 29.7208 9.93928 29.4395C10.2206 29.1582 10.6021 29.0002 10.9999 29.0002H14.4999V26.9002C12.1422 26.5874 9.9472 25.526 8.23794 23.8722C7.21674 22.8864 6.40392 21.7055 5.84771 20.3997C5.29149 19.0938 5.0032 17.6896 4.99994 16.2702V13.5002C4.99994 13.1024 5.15797 12.7208 5.43928 12.4395C5.72058 12.1582 6.10211 12.0002 6.49994 12.0002C6.89776 12.0002 7.27929 12.1582 7.5606 12.4395C7.8419 12.7208 7.99994 13.1024 7.99994 13.5002V16.2702C8.00317 17.2882 8.21091 18.2952 8.61082 19.2314C9.01073 20.1677 9.59465 21.014 10.3279 21.7202C11.8507 23.188 13.8849 24.0057 15.9999 24.0002C17.6299 24.0002 19.2039 23.5202 20.5239 22.6462L19.0719 21.1942C18.1348 21.7239 17.0764 22.0016 15.9999 22.0002C14.4399 22.0002 12.9239 21.4202 11.7919 20.3582C11.2296 19.8372 10.7804 19.2062 10.4721 18.5043C10.1639 17.8025 10.0031 17.0447 9.99994 16.2782V12.1202ZM12.9999 15.1202V16.2782C12.9999 16.9682 13.2919 17.6502 13.8439 18.1702C14.3999 18.6902 15.1739 19.0002 15.9999 19.0002C16.2679 19.0002 16.5319 18.9682 16.7839 18.9062L12.9999 15.1202Z" fill="#EA4335"/>
<path d="M24.0598 13.5C24.0598 13.1022 24.2179 12.7206 24.4992 12.4393C24.7805 12.158 25.162 12 25.5598 12C25.9576 12 26.3392 12.158 26.6205 12.4393C26.9018 12.7206 27.0598 13.1022 27.0598 13.5V16.27C27.0598 16.802 27.0198 17.33 26.9398 17.85C26.8796 18.2433 26.6656 18.5966 26.3449 18.8322C26.0243 19.0677 25.6231 19.1662 25.2298 19.106C24.8365 19.0458 24.4832 18.8318 24.2477 18.5111C24.0121 18.1904 23.9136 17.7893 23.9738 17.396C24.0318 17.026 24.0598 16.648 24.0598 16.27V13.5Z" fill="#EA4335"/>
</g>
<defs>
<clipPath id="clip0_461_420">
<rect width="32" height="32" fill="white"/>
</clipPath>
</defs>
</svg>
