<svg width="32" height="32" viewBox="0 0 32 32" fill="none" xmlns="http://www.w3.org/2000/svg">
<g clip-path="url(#clip0_310_279)">
<path d="M16.0002 4.31493e-05C14.4402 4.31493e-05 12.9242 0.580043 11.7922 1.64204C11.2709 2.13015 10.8456 2.71149 10.5382 3.35604C10.381 3.71318 10.3692 4.11749 10.5053 4.48319C10.6413 4.84889 10.9145 5.14718 11.2669 5.31477C11.6192 5.48236 12.023 5.50606 12.3925 5.38083C12.7621 5.25561 13.0683 4.99132 13.2462 4.64404C13.3862 4.35004 13.5862 4.07204 13.8462 3.83004C14.4336 3.2913 15.2031 2.99478 16.0002 3.00004C16.8262 3.00004 17.6002 3.30804 18.1562 3.83004C18.7082 4.35004 19.0002 5.03204 19.0002 5.72204V12.608C19.0002 13.0059 19.1582 13.3874 19.4395 13.6687C19.7208 13.95 20.1024 14.108 20.5002 14.108C20.898 14.108 21.2795 13.95 21.5608 13.6687C21.8421 13.3874 22.0002 13.0059 22.0002 12.608V5.72204C22.0002 4.17204 21.3422 2.70804 20.2082 1.64204C19.0643 0.58111 17.5603 -0.00579559 16.0002 4.31493e-05Z" fill="white"/>
<path fill-rule="evenodd" clip-rule="evenodd" d="M10.0002 12.1202L2.44018 4.56018C2.17522 4.27583 2.03097 3.89974 2.03783 3.51114C2.04469 3.12253 2.20211 2.75176 2.47694 2.47694C2.75176 2.20211 3.12253 2.04469 3.51114 2.03783C3.89974 2.03097 4.27583 2.17522 4.56018 2.44018L29.5602 27.4402C29.7076 27.5775 29.8258 27.7431 29.9077 27.9271C29.9897 28.1111 30.0338 28.3097 30.0374 28.5111C30.0409 28.7125 30.0039 28.9126 29.9284 29.0994C29.853 29.2862 29.7407 29.4558 29.5983 29.5983C29.4558 29.7407 29.2862 29.853 29.0994 29.9284C28.9126 30.0039 28.7125 30.0409 28.5111 30.0374C28.3097 30.0338 28.1111 29.9897 27.9271 29.9077C27.7431 29.8258 27.5775 29.7076 27.4402 29.5602L22.6762 24.8002C21.157 25.928 19.3757 26.6507 17.5002 26.9002V29.0002H21.0002C21.398 29.0002 21.7795 29.1582 22.0608 29.4395C22.3421 29.7208 22.5002 30.1024 22.5002 30.5002C22.5002 30.898 22.3421 31.2795 22.0608 31.5608C21.7795 31.8421 21.398 32.0002 21.0002 32.0002H11.0002C10.6024 32.0002 10.2208 31.8421 9.93952 31.5608C9.65822 31.2795 9.50018 30.898 9.50018 30.5002C9.50018 30.1024 9.65822 29.7208 9.93952 29.4395C10.2208 29.1582 10.6024 29.0002 11.0002 29.0002H14.5002V26.9002C12.1425 26.5874 9.94744 25.526 8.23818 23.8722C7.21698 22.8864 6.40417 21.7055 5.84795 20.3997C5.29173 19.0938 5.00344 17.6896 5.00018 16.2702V13.5002C5.00018 13.1024 5.15822 12.7208 5.43952 12.4395C5.72083 12.1582 6.10236 12.0002 6.50018 12.0002C6.89801 12.0002 7.27954 12.1582 7.56084 12.4395C7.84215 12.7208 8.00018 13.1024 8.00018 13.5002V16.2702C8.00342 17.2882 8.21116 18.2952 8.61106 19.2314C9.01097 20.1677 9.5949 21.014 10.3282 21.7202C11.8509 23.188 13.8851 24.0057 16.0002 24.0002C17.6302 24.0002 19.2042 23.5202 20.5242 22.6462L19.0722 21.1942C18.1351 21.7239 17.0766 22.0016 16.0002 22.0002C14.4402 22.0002 12.9242 21.4202 11.7922 20.3582C11.2299 19.8372 10.7806 19.2062 10.4724 18.5043C10.1641 17.8025 10.0034 17.0447 10.0002 16.2782V12.1202ZM13.0002 15.1202V16.2782C13.0002 16.9682 13.2922 17.6502 13.8442 18.1702C14.4002 18.6902 15.1742 19.0002 16.0002 19.0002C16.2682 19.0002 16.5322 18.9682 16.7842 18.9062L13.0002 15.1202Z" fill="white"/>
<path d="M24.0603 13.5C24.0603 13.1022 24.2183 12.7206 24.4996 12.4393C24.781 12.158 25.1625 12 25.5603 12C25.9581 12 26.3397 12.158 26.621 12.4393C26.9023 12.7206 27.0603 13.1022 27.0603 13.5V16.27C27.0603 16.802 27.0203 17.33 26.9403 17.85C26.8801 18.2433 26.6661 18.5966 26.3454 18.8322C26.0247 19.0677 25.6236 19.1662 25.2303 19.106C24.837 19.0458 24.4837 18.8318 24.2482 18.5111C24.0126 18.1904 23.9141 17.7893 23.9743 17.396C24.0323 17.026 24.0603 16.648 24.0603 16.27V13.5Z" fill="white"/>
</g>
<defs>
<clipPath id="clip0_310_279">
<rect width="32" height="32" fill="white"/>
</clipPath>
</defs>
</svg>
