<svg width="24" height="24" viewBox="0 0 24 24" fill="none" xmlns="http://www.w3.org/2000/svg">
<g opacity="0.3">
<path d="M4.00781 20.1762V22.2866H20.0001V19.312H4.00781V20.1762Z" fill="white"/>
<path d="M16.8777 3.85911V2H10.041L11.3004 3.85911H16.8777Z" fill="white"/>
<path d="M11.3201 4.59888L10.1807 6.07816H11.7399C11.7399 7.49748 12.8794 8.63693 14.2987 8.63693C15.718 8.63693 16.8574 7.49748 16.8574 6.07816V4.59888H11.3201Z" fill="white"/>
<path d="M19.9959 18.0123V12.5949V11.5554V11.2155C19.9959 10.276 19.2362 9.51636 18.2967 9.51636H18.0768L14.4585 14.414L11.7998 18.0123H19.9959Z" fill="white"/>
<path d="M10.5005 12.8148V17.5725L16.4577 9.51636H12.1997C12.1797 9.51636 12.1597 9.51636 12.1398 9.51636H11.1802H10.1607C9.60098 9.51636 8.80137 9.95615 8.40156 10.4959C8.00175 11.0356 7.68191 11.4754 7.68191 11.4754L4.22357 16.1332C3.84376 16.6329 3.9637 17.3326 4.46346 17.7124L4.5834 17.7924C5.08316 18.1522 5.78282 18.0522 6.16264 17.5525L10.5005 11.7153V12.8148Z" fill="white"/>
</g>
</svg>
