<svg width="31" height="37" viewBox="0 0 31 37" fill="none" xmlns="http://www.w3.org/2000/svg">
<path d="M5.072 1.31399C4.61751 1.03437 4.09666 0.881039 3.56315 0.869806C3.02965 0.858572 2.50281 0.989842 2.03695 1.25008C1.57109 1.51032 1.18307 1.89011 0.912904 2.35028C0.642739 2.81046 0.500205 3.33437 0.5 3.86799V33.132C0.500205 33.6656 0.642739 34.1895 0.912904 34.6497C1.18307 35.1099 1.57109 35.4897 2.03695 35.7499C2.50281 36.0101 3.02965 36.1414 3.56315 36.1302C4.09666 36.1189 4.61751 35.9656 5.072 35.686L28.848 21.054C29.2844 20.7855 29.6447 20.4097 29.8946 19.9624C30.1445 19.5152 30.2757 19.0113 30.2757 18.499C30.2757 17.9866 30.1445 17.4828 29.8946 17.0356C29.6447 16.5883 29.2844 16.2125 28.848 15.944L5.072 1.31399Z" fill="#00573F"/>
</svg>
