<svg width="49" height="49" viewBox="0 0 49 49" fill="none" xmlns="http://www.w3.org/2000/svg">
<path d="M17.072 7.31399C16.6175 7.03437 16.0967 6.88104 15.5632 6.86981C15.0297 6.85857 14.5028 6.98984 14.0369 7.25008C13.5711 7.51032 13.1831 7.89011 12.9129 8.35028C12.6427 8.81046 12.5002 9.33437 12.5 9.86799V39.132C12.5002 39.6656 12.6427 40.1895 12.9129 40.6497C13.1831 41.1099 13.5711 41.4897 14.0369 41.7499C14.5028 42.0101 15.0297 42.1414 15.5632 42.1302C16.0967 42.1189 16.6175 41.9656 17.072 41.686L40.848 27.054C41.2844 26.7855 41.6447 26.4097 41.8946 25.9624C42.1445 25.5152 42.2757 25.0113 42.2757 24.499C42.2757 23.9866 42.1445 23.4828 41.8946 23.0356C41.6447 22.5883 41.2844 22.2125 40.848 21.944L17.072 7.31399Z" fill="#00573F"/>
</svg>
