<svg width="36" height="36" viewBox="0 0 36 36" fill="none" xmlns="http://www.w3.org/2000/svg">
<rect x="0.5" y="0.5" width="35" height="35" rx="6.5" fill="white"/>
<path fill-rule="evenodd" clip-rule="evenodd" d="M23.7854 13.5512L10.975 18.583L22.6208 22.3265L23.7854 13.5512ZM24.3184 11.1931C25.1696 10.8588 26.067 11.5614 25.9467 12.4679L24.4774 23.5391C24.379 24.2809 23.633 24.7527 22.9206 24.5237L19.2436 23.3417L16.8493 26.2154C16.1308 27.0777 14.7273 26.5697 14.7273 25.4473V21.89L8.22782 19.8008C7.15394 19.4556 7.1064 17.9538 8.15633 17.5414L24.3184 11.1931ZM16.7273 22.5329V23.2374L17.1903 22.6817L16.7273 22.5329Z" fill="#00573F"/>
<path fill-rule="evenodd" clip-rule="evenodd" d="M24.8427 13.3639L16.3427 21.3639L15.6574 20.6357L24.1574 12.6357L24.8427 13.3639Z" fill="#00573F"/>
<rect x="0.5" y="0.5" width="35" height="35" rx="6.5" stroke="#BFBFBF"/>
</svg>
