<svg width="82" height="82" viewBox="0 0 82 82" fill="none" xmlns="http://www.w3.org/2000/svg">
<rect width="82" height="82" fill="white"/>
<g opacity="0.7" clip-path="url(#clip0_767_1411)">
<path d="M41.1272 53.0463C40.8926 52.787 40.9743 52.532 41.4853 52.5898C41.9964 52.6477 42.6645 52.802 42.9996 52.9113C47.358 54.3213 48.6628 59.098 49.0691 60.4138C49.2429 60.9752 50.6692 64.5604 51.1907 67.4083C51.7541 70.4728 51.4148 72.83 51.5489 74.0001L51.4085 73.8844C47.8041 70.8756 45.8458 65.9533 44.5766 61.1402C43.4917 57.0322 44.6793 56.97 41.1251 53.0463H41.1272Z" fill="#90B54C"/>
<path d="M53.4526 47.9394C53.4526 47.2258 52.8872 46.6472 52.1897 46.6472C51.4922 46.6472 50.9268 47.2258 50.9268 47.9394V72.6177C50.9268 73.3313 51.4922 73.9099 52.1897 73.9099C52.8872 73.9099 53.4526 73.3313 53.4526 72.6177V47.9394Z" fill="#90B54C"/>
<path d="M60.1966 67.7876C57.254 71.4049 53.9784 74.0001 51.6536 74.0022C51.4127 74.0022 51.218 73.775 51.2682 73.5458C52.1688 69.3777 54.8517 64.5496 57.897 60.808C60.8186 57.2164 62.714 56.2993 66.1069 54.9513C66.4002 54.8356 66.8421 55.2342 66.6012 55.4335C65.8054 56.0957 64.8713 57.2893 64.4817 58.2558C62.9696 62.0038 62.5863 64.8518 60.1987 67.7898L60.1966 67.7876Z" fill="#90B54C"/>
<path d="M53.7457 27.0071C53.7457 27.0071 55.7145 24.4848 57.4842 27.4207C59.2561 30.3565 60.2739 37.0318 59.5723 38.9969C58.8707 40.962 57.6497 46.9215 55.5825 49.8938C53.5154 52.864 52.9499 53.0825 52.3613 50.6053C51.7728 48.128 49.2323 34.5631 53.7457 27.0071Z" fill="#90B54C"/>
<path d="M51.1403 50.6053C51.1403 50.6053 49.1192 40.7862 45.0352 36.8925C40.949 33.0009 38.8798 32.4866 38.4127 33.2988C37.9457 34.1109 37.7111 35.1546 38.6138 37.0425C39.5164 38.9283 45.3828 47.453 49.1422 49.8059L51.1424 50.6053H51.1403Z" fill="#90B54C"/>
<path d="M55.2766 37.1284C55.2766 35.3827 53.8935 33.9675 52.1874 33.9675C50.4812 33.9675 49.0981 35.3827 49.0981 37.1284V48.9853C49.0981 50.731 50.4812 52.1462 52.1874 52.1462C53.8935 52.1462 55.2766 50.731 55.2766 48.9853V37.1284Z" fill="white"/>
<path d="M53.0547 51.8333C53.0547 51.8333 53.0505 53.4405 53.8945 52.8491C53.8945 52.8491 55.3124 50.4511 55.7606 49.6818C56.2088 48.9125 60.2384 42.9315 61.7736 41.6864C63.3067 40.4414 67.8138 36.2283 67.8055 36.2476C67.7971 36.2669 68.3081 35.7955 67.7175 35.8855C67.1269 35.9755 61.5642 36.1705 59.3211 39.9806C57.078 43.7908 53.8087 49.5446 53.4819 50.5004C53.1552 51.4562 53.0589 51.8355 53.0589 51.8355L53.0547 51.8333Z" fill="#90B54C"/>
<path d="M44.2039 41.4249C44.2039 41.4249 51.4798 40.1606 54.0999 42.3614C54.3324 42.5564 54.479 42.8371 54.5167 43.1436C54.7031 44.6608 55.2665 49.9131 54.4685 52.0775C54.4685 52.0775 53.7857 53.524 52.6799 53.5197C52.6799 53.5197 51.2452 53.929 50.4431 52.804C49.6409 51.6789 43.2677 42.5864 43.6992 41.9006C43.9526 41.4978 44.2039 41.4228 44.2039 41.4228V41.4249Z" fill="#90B54C"/>
</g>
<g opacity="0.4" clip-path="url(#clip1_767_1411)">
<path d="M16.3973 57.8482C16.2174 57.6483 16.2801 57.4518 16.6719 57.4964C17.0636 57.541 17.5759 57.6599 17.8328 57.7442C21.1742 58.8311 22.1746 62.5131 22.4861 63.5273C22.6194 63.9601 23.7128 66.7237 24.1127 68.919C24.5446 71.2811 24.2845 73.0982 24.3872 74.0001L24.2796 73.9109C21.5162 71.5917 20.0149 67.7974 19.0419 64.0873C18.2101 60.9207 19.1205 60.8728 16.3957 57.8482H16.3973Z" fill="#90B54C"/>
<path d="M25.8466 53.9118C25.8466 53.3617 25.4131 52.9158 24.8784 52.9158C24.3436 52.9158 23.9102 53.3617 23.9102 53.9118V72.9347C23.9102 73.4848 24.3436 73.9307 24.8784 73.9307C25.4131 73.9307 25.8466 73.4848 25.8466 72.9347V53.9118Z" fill="#90B54C"/>
<path d="M31.0172 69.2114C28.7612 71.9997 26.2499 74.0001 24.4676 74.0018C24.2829 74.0018 24.1336 73.8267 24.1721 73.6499C24.8626 70.437 26.9195 66.7154 29.2542 63.8313C31.4941 61.0627 32.9473 60.3557 35.5485 59.3167C35.7733 59.2275 36.1121 59.5348 35.9274 59.6884C35.3173 60.1988 34.6011 61.1189 34.3025 61.8639C33.1431 64.753 32.8493 66.9483 31.0188 69.213L31.0172 69.2114Z" fill="#90B54C"/>
<path d="M26.0719 37.7764C26.0719 37.7764 27.5812 35.8321 28.938 38.0952C30.2964 40.3582 31.0768 45.5038 30.5389 47.0185C30.001 48.5333 29.0649 53.1271 27.4801 55.4182C25.8952 57.7077 25.4617 57.8762 25.0105 55.9666C24.5593 54.0571 22.6116 43.6008 26.0719 37.7764Z" fill="#90B54C"/>
<path d="M24.0741 55.9667C24.0741 55.9667 22.5246 48.3979 19.3935 45.3965C16.2608 42.3967 14.6744 42.0002 14.3163 42.6263C13.9582 43.2524 13.7784 44.0568 14.4704 45.5121C15.1625 46.9657 19.6601 53.5368 22.5423 55.3506L24.0757 55.9667H24.0741Z" fill="#90B54C"/>
<path d="M27.2456 45.5781C27.2456 44.2325 26.1852 43.1416 24.8772 43.1416C23.5692 43.1416 22.5088 44.2325 22.5088 45.5781V54.7178C22.5088 56.0635 23.5692 57.1543 24.8772 57.1543C26.1852 57.1543 27.2456 56.0635 27.2456 54.7178V45.5781Z" fill="white"/>
<path d="M25.542 56.9133C25.542 56.9133 25.5388 58.1522 26.1859 57.6963C26.1859 57.6963 27.2729 55.8478 27.6166 55.2548C27.9602 54.6618 31.0495 50.0515 32.2265 49.0917C33.4019 48.132 36.8573 44.8844 36.8509 44.8993C36.8445 44.9142 37.2363 44.5508 36.7835 44.6201C36.3307 44.6895 32.0659 44.8398 30.3462 47.7768C28.6265 50.7139 26.12 55.1491 25.8696 55.8858C25.6191 56.6226 25.5452 56.9149 25.5452 56.9149L25.542 56.9133Z" fill="#90B54C"/>
<path d="M18.756 48.8902C18.756 48.8902 24.3342 47.9156 26.343 49.612C26.5212 49.7624 26.6336 49.9787 26.6625 50.215C26.8054 51.3845 27.2373 55.4332 26.6256 57.1016C26.6256 57.1016 26.1021 58.2166 25.2543 58.2133C25.2543 58.2133 24.1544 58.5288 23.5394 57.6615C22.9244 56.7943 18.0383 49.7855 18.3691 49.2569C18.5634 48.9463 18.756 48.8885 18.756 48.8885V48.8902Z" fill="#90B54C"/>
</g>
<g clip-path="url(#clip2_767_1411)">
<path d="M22.3775 45.1886C22.0491 44.832 22.1634 44.4814 22.8789 44.561C23.5943 44.6405 24.5297 44.8527 24.9988 45.0029C31.1006 46.9418 32.9273 53.5097 33.4962 55.3188C33.7395 56.0908 35.7363 61.0204 36.4664 64.9364C37.2552 69.15 36.7802 72.3912 36.9678 74L36.7714 73.8409C31.7251 69.704 28.9836 62.9357 27.2067 56.3177C25.6879 50.6692 27.3504 50.5837 22.3745 45.1886H22.3775Z" fill="#90B54C"/>
<path d="M39.6333 38.1669C39.6333 37.1856 38.8417 36.3901 37.8652 36.3901C36.8888 36.3901 36.0972 37.1856 36.0972 38.1669V72.0995C36.0972 73.0808 36.8888 73.8763 37.8652 73.8763C38.8417 73.8763 39.6333 73.0808 39.6333 72.0995V38.1669Z" fill="#90B54C"/>
<path d="M49.0748 65.4579C44.9552 70.4317 40.3693 74 37.1146 74.0029C36.7774 74.0029 36.5047 73.6906 36.5751 73.3753C37.8359 67.6442 41.592 61.0056 45.8553 55.8609C49.9457 50.9225 52.5993 49.6614 57.3493 47.808C57.7598 47.6489 58.3785 48.1969 58.0413 48.471C56.9271 49.3814 55.6194 51.0227 55.074 52.3516C52.957 57.5051 52.4204 61.4211 49.0778 65.4608L49.0748 65.4579Z" fill="#90B54C"/>
<path d="M40.0437 9.38477C40.0437 9.38477 42.7999 5.91667 45.2776 9.95346C47.7582 13.9902 49.1832 23.1688 48.201 25.8708C47.2187 28.5728 45.5092 36.7672 42.6152 40.854C39.7212 44.938 38.9295 45.2385 38.1056 41.8323C37.2817 38.4261 33.725 19.7743 40.0437 9.38477Z" fill="#90B54C"/>
<path d="M36.3961 41.8324C36.3961 41.8324 33.5666 28.3313 27.8489 22.9774C22.1283 17.6264 19.2314 16.9192 18.5775 18.036C17.9236 19.1527 17.5952 20.5877 18.859 23.1836C20.1227 25.7766 28.3357 37.498 33.5989 40.7333L36.3991 41.8324H36.3961Z" fill="#90B54C"/>
<path d="M42.1874 23.3015C42.1874 20.9012 40.2511 18.9553 37.8625 18.9553C35.4739 18.9553 33.5376 20.9012 33.5376 23.3015V39.6048C33.5376 42.0051 35.4739 43.951 37.8625 43.951C40.2511 43.951 42.1874 42.0051 42.1874 39.6048V23.3015Z" fill="white"/>
<path d="M39.0762 43.5207C39.0762 43.5207 39.0703 45.7306 40.252 44.9174C40.252 44.9174 42.237 41.6202 42.8645 40.5623C43.492 39.5045 49.1334 31.2807 51.2827 29.5687C53.429 27.8568 59.739 22.0638 59.7272 22.0904C59.7155 22.1169 60.431 21.4686 59.6041 21.5924C58.7772 21.7161 50.9895 21.9843 47.8491 27.2233C44.7088 32.4622 40.1317 40.3738 39.6743 41.6879C39.2169 43.0021 39.082 43.5236 39.082 43.5236L39.0762 43.5207Z" fill="#90B54C"/>
<path d="M26.6852 29.2094C26.6852 29.2094 36.8714 27.4709 40.5395 30.497C40.865 30.7652 41.0703 31.1512 41.123 31.5725C41.384 33.6587 42.1727 40.8807 41.0556 43.8567C41.0556 43.8567 40.0997 45.8456 38.5515 45.8398C38.5515 45.8398 36.543 46.4025 35.42 44.8556C34.297 43.3087 25.3745 30.8064 25.9785 29.8635C26.3333 29.3096 26.6852 29.2064 26.6852 29.2064V29.2094Z" fill="#90B54C"/>
</g>
<defs>
<clipPath id="clip0_767_1411">
<rect width="30" height="48" fill="white" transform="translate(38 26)"/>
</clipPath>
<clipPath id="clip1_767_1411">
<rect width="23" height="37" fill="white" transform="translate(14 37)"/>
</clipPath>
<clipPath id="clip2_767_1411">
<rect width="42" height="66" fill="white" transform="translate(18 8)"/>
</clipPath>
</defs>
</svg>
