<svg width="20" height="20" viewBox="0 0 20 20" fill="none" xmlns="http://www.w3.org/2000/svg">
<path fill-rule="evenodd" clip-rule="evenodd" d="M14.7197 16.5796C13.1828 17.7307 11.2741 18.4124 9.20622 18.4124C4.12177 18.4124 0 14.2907 0 9.20622C0 4.12177 4.12177 0 9.20622 0C14.2907 0 18.4124 4.12177 18.4124 9.20622C18.4124 11.2741 17.7307 13.1828 16.5796 14.7197L20 18.1401L18.1401 20L14.7197 16.5796ZM9.16667 16.6667C13.3088 16.6667 16.6667 13.3088 16.6667 9.16667C16.6667 5.02453 13.3088 1.66667 9.16667 1.66667C5.02453 1.66667 1.66667 5.02453 1.66667 9.16667C1.66667 13.3088 5.02453 16.6667 9.16667 16.6667Z" fill="#00573F"/>
</svg>
