<svg width="24" height="24" viewBox="0 0 24 24" fill="none" xmlns="http://www.w3.org/2000/svg">
<g opacity="0.3">
<path d="M16.6515 16.0293C17.3404 15.5768 18.2453 16.0704 18.2453 16.893V18.2194C18.2453 19.5253 17.2273 20.9237 16.0037 21.335L12.7237 22.4249C12.1478 22.6203 11.2122 22.6203 10.6466 22.4249L7.36655 21.335C6.13267 20.9237 5.125 19.5253 5.125 18.2194V16.8827C5.125 16.0704 6.02985 15.5768 6.70848 16.019L8.82664 17.3968C9.63896 17.9418 10.6672 18.2091 11.6954 18.2091C12.7237 18.2091 13.7519 17.9418 14.5642 17.3968L16.6515 16.0293Z" fill="black"/>
<path d="M19.8887 6.58849L13.7296 2.54753C12.6191 1.81749 10.7888 1.81749 9.67831 2.54753L3.48837 6.58849C1.50388 7.87379 1.50388 10.7837 3.48837 12.0793L5.13354 13.1486L9.67831 16.11C10.7888 16.84 12.6191 16.84 13.7296 16.11L18.2435 13.1486L19.6522 12.2232V15.3696C19.6522 15.7912 20.0018 16.1408 20.4234 16.1408C20.8449 16.1408 21.1945 15.7912 21.1945 15.3696V10.3107C21.6058 8.98428 21.1842 7.44193 19.8887 6.58849Z" fill="black"/>
</g>
</svg>
