<svg width="37" height="36" viewBox="0 0 37 36" fill="none" xmlns="http://www.w3.org/2000/svg">
<path fill-rule="evenodd" clip-rule="evenodd" d="M-4.95288 17.9998C-4.95288 5.11319 5.4938 -5.3335 18.3805 -5.3335C31.267 -5.3335 41.7138 5.11319 41.7138 17.9998C41.7138 30.8864 31.267 41.3332 18.3805 41.3332C5.4938 41.3332 -4.95288 30.8864 -4.95288 17.9998ZM18.3802 3.99984C13.2256 3.99984 9.04691 8.17851 9.04691 13.3332C9.04691 18.4877 13.2256 22.6665 18.3802 22.6665C23.5348 22.6665 27.7136 18.4877 27.7136 13.3332C27.7136 8.17851 23.5348 3.99984 18.3802 3.99984ZM30.3073 27.3271C32.0755 28.4658 31.9892 30.9477 30.3789 32.3004C27.1344 35.0252 22.9494 36.6665 18.3807 36.6665C13.8424 36.6665 9.68214 35.0469 6.44676 32.354C4.82218 31.0019 4.7361 28.5073 6.51198 27.3612C7.06481 27.0044 7.66686 26.6917 8.32026 26.4225C10.9492 25.3386 14.3069 24.9998 18.3805 24.9998C22.4745 24.9998 25.8513 25.3169 28.4871 26.3891C29.1455 26.657 29.7517 26.9694 30.3073 27.3271Z" fill="#FEFEFE"/>
</svg>
