<svg width="20" height="20" viewBox="0 0 20 20" fill="none" xmlns="http://www.w3.org/2000/svg">
<path fill-rule="evenodd" clip-rule="evenodd" d="M0 10C0 4.47715 4.47715 0 10 0C15.5228 0 20 4.47715 20 10C20 15.5228 15.5228 20 10 20C4.47715 20 0 15.5228 0 10ZM9.9999 4C7.79077 4 5.99991 5.79086 5.99991 8C5.99991 10.2091 7.79077 12 9.9999 12C12.209 12 13.9999 10.2091 13.9999 8C13.9999 5.79086 12.209 4 9.9999 4ZM15.1115 13.9974C15.8693 14.4854 15.8323 15.5491 15.1422 16.1288C13.7517 17.2966 11.9581 18 10.0001 18C8.0551 18 6.27215 17.3059 4.88556 16.1518C4.18931 15.5723 4.15242 14.5032 4.91351 14.012C5.15044 13.8591 5.40846 13.7251 5.68849 13.6097C6.81516 13.1452 8.2542 13 10 13C11.7546 13 13.2018 13.1359 14.3314 13.5954C14.6136 13.7102 14.8734 13.8441 15.1115 13.9974Z" fill="#00573F"/>
</svg>
