<svg width="36" height="36" viewBox="0 0 36 36" fill="none" xmlns="http://www.w3.org/2000/svg">
<rect width="36" height="36" rx="18" fill="#424242"/>
<g clip-path="url(#clip0_154_1302)">
<path d="M18 6.00003C16.83 6.00003 15.693 6.43503 14.844 7.23153C14.4531 7.59761 14.1341 8.03362 13.9035 8.51703C13.7856 8.78488 13.7768 9.08812 13.8788 9.36239C13.9809 9.63667 14.1858 9.86039 14.45 9.98608C14.7143 10.1118 15.0171 10.1295 15.2943 10.0356C15.5714 9.94171 15.8011 9.74349 15.9345 9.48303C16.0395 9.26253 16.1895 9.05403 16.3845 8.87253C16.8251 8.46848 17.4022 8.24609 18 8.25003C18.6195 8.25003 19.2 8.48103 19.617 8.87253C20.031 9.26253 20.25 9.77403 20.25 10.2915V15.456C20.25 15.7544 20.3685 16.0405 20.5795 16.2515C20.7905 16.4625 21.0766 16.581 21.375 16.581C21.6734 16.581 21.9595 16.4625 22.1705 16.2515C22.3815 16.0405 22.5 15.7544 22.5 15.456V10.2915C22.5 9.12903 22.0065 8.03103 21.156 7.23153C20.2981 6.43583 19.1701 5.99565 18 6.00003Z" fill="white"/>
<path fill-rule="evenodd" clip-rule="evenodd" d="M13.5 15.0903L7.83001 9.42026C7.63129 9.207 7.52311 8.92493 7.52825 8.63347C7.53339 8.34202 7.65146 8.06394 7.85758 7.85783C8.0637 7.65171 8.34178 7.53364 8.63323 7.5285C8.92468 7.52335 9.20675 7.63154 9.42001 7.83026L28.17 26.5803C28.2805 26.6833 28.3692 26.8075 28.4307 26.9454C28.4922 27.0835 28.5252 27.2324 28.5279 27.3835C28.5306 27.5345 28.5028 27.6846 28.4462 27.8247C28.3896 27.9647 28.3054 28.092 28.1986 28.1988C28.0917 28.3056 27.9645 28.3899 27.8244 28.4464C27.6843 28.503 27.5343 28.5308 27.3832 28.5281C27.2322 28.5255 27.0832 28.4924 26.9452 28.4309C26.8072 28.3694 26.683 28.2808 26.58 28.1703L23.007 24.6003C21.8676 25.4461 20.5317 25.9881 19.125 26.1753V27.7503H21.75C22.0484 27.7503 22.3345 27.8688 22.5455 28.0798C22.7565 28.2907 22.875 28.5769 22.875 28.8753C22.875 29.1736 22.7565 29.4598 22.5455 29.6708C22.3345 29.8817 22.0484 30.0003 21.75 30.0003H14.25C13.9516 30.0003 13.6655 29.8817 13.4545 29.6708C13.2435 29.4598 13.125 29.1736 13.125 28.8753C13.125 28.5769 13.2435 28.2907 13.4545 28.0798C13.6655 27.8688 13.9516 27.7503 14.25 27.7503H16.875V26.1753C15.1067 25.9407 13.4605 25.1446 12.1785 23.9043C11.4126 23.1649 10.803 22.2793 10.3858 21.2999C9.96868 20.3205 9.75246 19.2673 9.75001 18.2028V16.1253C9.75001 15.8269 9.86854 15.5407 10.0795 15.3298C10.2905 15.1188 10.5766 15.0003 10.875 15.0003C11.1734 15.0003 11.4595 15.1188 11.6705 15.3298C11.8815 15.5407 12 15.8269 12 16.1253V18.2028C12.0024 18.9663 12.1582 19.7215 12.4582 20.4237C12.7581 21.1259 13.1961 21.7606 13.746 22.2903C14.8881 23.3912 16.4137 24.0044 18 24.0003C19.2225 24.0003 20.403 23.6403 21.393 22.9848L20.304 21.8958C19.6012 22.293 18.8074 22.5013 18 22.5003C16.83 22.5003 15.693 22.0653 14.844 21.2688C14.4223 20.878 14.0854 20.4048 13.8542 19.8784C13.623 19.352 13.5024 18.7837 13.5 18.2088V15.0903ZM15.75 17.3403V18.2088C15.75 18.7263 15.969 19.2378 16.383 19.6278C16.8 20.0178 17.3805 20.2503 18 20.2503C18.201 20.2503 18.399 20.2263 18.588 20.1798L15.75 17.3403Z" fill="white"/>
<path d="M24.045 16.125C24.045 15.8266 24.1635 15.5405 24.3745 15.3295C24.5855 15.1185 24.8716 15 25.17 15C25.4684 15 25.7545 15.1185 25.9655 15.3295C26.1765 15.5405 26.295 15.8266 26.295 16.125V18.2025C26.295 18.6015 26.265 18.9975 26.205 19.3875C26.1598 19.6825 25.9993 19.9475 25.7588 20.1241C25.5183 20.3008 25.2175 20.3747 24.9225 20.3295C24.6275 20.2843 24.3625 20.1239 24.1859 19.8833C24.0092 19.6428 23.9353 19.342 23.9805 19.047C24.024 18.7695 24.045 18.486 24.045 18.2025V16.125Z" fill="white"/>
</g>
<defs>
<clipPath id="clip0_154_1302">
<rect width="24" height="24" fill="white" transform="translate(6 6)"/>
</clipPath>
</defs>
</svg>
